<?xml version="1.0" encoding="UTF-8" standalone="no"?>
<svg 
   width="279.12pt"
   height="115.919998pt"
   viewBox="0 0 279.12 115.919998"
   version="1.1"
   id="svg71"
   xmlns="http://www.w3.org/2000/svg"
   xmlns:svg="http://www.w3.org/2000/svg" content="%3Cmxfile%20host%3D%22app.diagrams.net%22%20modified%3D%222022-07-17T02%3A19%3A32.359Z%22%20agent%3D%225.0%20(Windows%20NT%2010.0%3B%20Win64%3B%20x64)%20AppleWebKit%2F537.36%20(KHTML%2C%20like%20Gecko)%20Chrome%2F103.0.0.0%20Safari%2F537.36%22%20etag%3D%22oOr39GdcDGXPliQI8TqV%22%20version%3D%2220.0.0%22%20type%3D%22device%22%3E%3Cdiagram%20id%3D%22XdwXzX9H8VY0JEBUQHGl%22%20name%3D%22Page-1%22%3E7Zbfb5swEMf%2FGkvbQyqwgTqPQEijdZ20ZT%2BeCRiwZjAzTpPur98ZTAhtKnVS97S%2BwPl7dz6f%2FTECkbg%2B3qi0re5kzgTCTn5EZIUwXlIMTyM8DILvkEEoFc8HyZ2ELf%2FNrOhYdc9z1s0CtZRC83YuZrJpWKZnWqqUPMzDCinmVdu0tBWdSdhmqWBPwn7wXFeDSvH1pG8YL6uxshssB0%2BdjsF24q5Kc3k4k0iCSKyk1INVH2MmzN6N%2BzLkrZ%2FxnhamWKNfkoBvqZN92CRN%2Fe2Of9x8v0kePi88exr3qdjbjlESIRqhkKIkRssVimLwGzuKUOShZIXoGoVxH%2BYhGvdKiCJq29QP494puW9yZso7iESHimu2bdPMeA8AC2iVrgWMXDAL2eh1WnNhQPkktYS5tmnTwev2i%2FVv5V716ZXWcP7YJyE8oGPzMAHdVSllKVja8u4qk3XvyLo%2BdF0Ms4Np5%2FdxNFQAo6%2FRaSV%2Fns4Zj1VtR%2F0quRCxFFL1HZKiKHCWnTLPPHmwC%2FwAPPdMaQ48hYKXDfi0NI13sA%2B8Kb%2BawWpBKEj2ICCcHZ89YvcEDlw4JmumFXTk2ARMLWv2spHAjg8TuuTaatU5tiOkqb0u5WnuiSgwLFR%2FA5h7ATDgClhavpirQMA6o50Cq9T9Vg2KOZ0ZcsGvvRwdi67%2FmAAhzrI9DlnWPc7zrl8KRbBtpurK2GZNUBUjSt6PddBA11T%2BvwM99xnNvUugU7wjQfA6%2FBLnEb%2F0Kb%2Bud4Ff%2Bs%2FwxZfxjQ2jBlCMQu%2BN4zeOZxx7j7%2FDlzj2X4djGE7%2FEL3v7EeMJH8A%3C%2Fdiagram%3E%3C%2Fmxfile%3E">
  <defs
     id="defs5">
    <clipPath
       id="clip-0">
      <path
         clip-rule="nonzero"
         d="M 0 0 L 279 0 L 279 115.921875 L 0 115.921875 Z M 0 0 "
         id="path2" />
    </clipPath>
  </defs>
  <g
     clip-path="url(#clip-0)"
     id="g9">
    <path
       fill-rule="nonzero"
       fill="#ffffff"
       fill-opacity="1"
       d="M 0,0 H 279 V 115.9375 H 0 Z m 0,0"
       id="path7" />
  </g>
  <path
     fill-rule="nonzero"
     fill="rgb(100%, 94.898987%, 79.998779%)"
     fill-opacity="1"
     stroke-width="2"
     stroke-linecap="butt"
     stroke-linejoin="miter"
     stroke="rgb(83.918762%, 71.369934%, 33.729553%)"
     stroke-opacity="1"
     stroke-miterlimit="4"
     d="M 0.997466 30.999777 L 370.99986 30.999777 L 370.99986 150.998577 L 0.997466 150.998577 Z M 0.997466 30.999777 "
     transform="matrix(0.747989, 0, 0, 0.747989, 0, 0)"
     id="path11" />
  <path
     fill-rule="nonzero"
     fill="rgb(0%, 0%, 0%)"
     fill-opacity="1"
     d="M 118.503906 5.253906 C 117.582031 5.433594 116.390625 5.527344 114.921875 5.527344 L 114.785156 5.527344 L 114.785156 2.742188 L 117.75 2.742188 L 117.75 2.882813 L 117.609375 2.882813 L 117.609375 2.289063 L 117.75 2.289063 L 117.75 2.429688 L 114.1875 2.429688 L 114.1875 2.289063 L 114.328125 2.289063 L 114.328125 5.988281 L 114.1875 5.988281 L 114.1875 5.847656 L 114.816406 5.847656 C 116.390625 5.847656 117.628906 5.753906 118.53125 5.570313 L 118.558594 5.707031 L 118.417969 5.726563 L 118.339844 5.136719 L 118.476563 5.117188 Z M 118.597656 4.949219 L 118.714844 5.820313 L 118.585938 5.847656 C 117.664063 6.035156 116.40625 6.128906 114.816406 6.128906 L 114.046875 6.128906 L 114.046875 2.148438 L 117.890625 2.148438 L 117.890625 3.023438 L 114.921875 3.023438 L 114.921875 2.882813 L 115.0625 2.882813 L 115.0625 5.386719 L 114.921875 5.386719 L 114.921875 5.246094 C 116.371094 5.246094 117.546875 5.15625 118.449219 4.980469 Z M 115.792969 6.972656 L 115.058594 6.972656 L 115.058594 6.832031 L 115.199219 6.832031 L 115.199219 9.460938 L 115.058594 9.460938 L 115.058594 9.320313 L 120.425781 9.320313 L 120.425781 9.460938 L 120.285156 9.460938 L 120.285156 8.859375 L 120.425781 8.859375 L 120.425781 9 L 115.652344 9 L 115.652344 6.832031 L 115.792969 6.832031 Z M 115.933594 6.691406 L 115.933594 8.859375 L 115.792969 8.859375 L 115.792969 8.71875 L 120.566406 8.71875 L 120.566406 9.601563 L 114.917969 9.601563 L 114.917969 6.691406 Z M 119.925781 3.976563 L 119.925781 1.589844 L 120.066406 1.589844 L 120.066406 1.730469 L 119.332031 1.730469 L 119.332031 1.589844 L 119.472656 1.589844 L 119.472656 7.414063 L 119.332031 7.414063 L 119.332031 7.273438 L 120.066406 7.273438 L 120.066406 7.414063 L 119.925781 7.414063 L 119.925781 4.445313 L 121.261719 4.445313 L 121.261719 4.585938 L 121.121094 4.585938 L 121.121094 3.976563 L 121.261719 3.976563 L 121.261719 4.117188 L 119.925781 4.117188 Z M 120.207031 3.976563 L 120.066406 3.976563 L 120.066406 3.835938 L 121.402344 3.835938 L 121.402344 4.726563 L 120.066406 4.726563 L 120.066406 4.585938 L 120.207031 4.585938 L 120.207031 7.554688 L 119.191406 7.554688 L 119.191406 1.449219 L 120.207031 1.449219 Z M 121.261719 3.976563 L 121.261719 4.585938 L 120.066406 4.585938 L 120.066406 7.414063 L 119.332031 7.414063 L 119.332031 1.589844 L 120.066406 1.589844 L 120.066406 3.976563 Z M 115.792969 8.859375 L 120.425781 8.859375 L 120.425781 9.460938 L 115.058594 9.460938 L 115.058594 6.832031 L 115.792969 6.832031 Z M 118.558594 5.707031 C 117.453125 5.933594 116.503906 5.988281 114.816406 5.988281 L 114.1875 5.988281 L 114.1875 2.289063 L 117.75 2.289063 L 117.75 2.882813 L 114.921875 2.882813 L 114.921875 5.386719 C 116.511719 5.386719 117.429688 5.324219 118.476563 5.117188 Z M 118.558594 5.707031 "
     id="path13" />
  <path
     fill-rule="nonzero"
     fill="rgb(0%, 0%, 0%)"
     fill-opacity="1"
     d="M 128.683594 1.730469 L 127.949219 1.730469 L 127.949219 1.589844 L 128.085938 1.589844 L 128.085938 5.71875 L 127.949219 5.71875 L 127.949219 5.578125 L 128.683594 5.578125 L 128.683594 5.71875 L 128.542969 5.71875 L 128.542969 1.589844 L 128.683594 1.589844 Z M 128.824219 1.449219 L 128.824219 5.859375 L 127.808594 5.859375 L 127.808594 1.449219 Z M 122.835938 3.671875 C 122.835938 3.28125 122.980469 2.957031 123.273438 2.707031 C 123.554688 2.460938 123.910156 2.335938 124.339844 2.335938 C 124.769531 2.335938 125.128906 2.460938 125.410156 2.707031 C 125.699219 2.957031 125.84375 3.28125 125.84375 3.671875 C 125.84375 4.058594 125.699219 4.378906 125.410156 4.628906 C 125.125 4.875 124.769531 4.996094 124.339844 4.996094 C 123.914063 4.996094 123.558594 4.875 123.273438 4.628906 C 122.980469 4.378906 122.835938 4.058594 122.835938 3.671875 Z M 123.113281 3.671875 C 123.113281 3.972656 123.230469 4.222656 123.457031 4.417969 C 123.6875 4.617188 123.980469 4.714844 124.339844 4.714844 C 124.699219 4.714844 124.996094 4.617188 125.226563 4.417969 C 125.449219 4.222656 125.5625 3.972656 125.5625 3.671875 C 125.5625 3.363281 125.449219 3.113281 125.226563 2.917969 C 124.996094 2.71875 124.699219 2.617188 124.339844 2.617188 C 123.980469 2.617188 123.6875 2.71875 123.457031 2.917969 C 123.230469 3.113281 123.113281 3.367188 123.113281 3.671875 Z M 126.28125 3.671875 C 126.28125 3.183594 126.101563 2.785156 125.742188 2.480469 C 125.378906 2.171875 124.910156 2.015625 124.339844 2.015625 C 123.769531 2.015625 123.304688 2.171875 122.941406 2.480469 C 122.585938 2.785156 122.40625 3.183594 122.40625 3.671875 C 122.40625 4.152344 122.585938 4.546875 122.941406 4.851563 C 123.300781 5.15625 123.769531 5.308594 124.339844 5.308594 C 124.910156 5.308594 125.378906 5.15625 125.742188 4.851563 C 126.101563 4.546875 126.28125 4.152344 126.28125 3.671875 Z M 126.5625 3.671875 C 126.5625 4.242188 126.347656 4.703125 125.921875 5.0625 C 125.507813 5.414063 124.980469 5.589844 124.339844 5.589844 C 123.699219 5.589844 123.171875 5.414063 122.761719 5.0625 C 122.335938 4.703125 122.125 4.242188 122.125 3.671875 C 122.125 3.097656 122.335938 2.628906 122.761719 2.265625 C 123.171875 1.914063 123.699219 1.734375 124.339844 1.734375 C 124.980469 1.734375 125.507813 1.914063 125.921875 2.265625 C 126.347656 2.628906 126.5625 3.097656 126.5625 3.671875 Z M 124.074219 8.949219 L 124.074219 7.921875 L 128.683594 7.921875 L 128.683594 8.058594 L 128.542969 8.058594 L 128.542969 6.113281 L 128.683594 6.113281 L 128.683594 6.253906 L 123.46875 6.253906 L 123.46875 6.113281 L 123.609375 6.113281 L 123.609375 6.695313 L 123.46875 6.695313 L 123.46875 6.554688 L 128.097656 6.554688 L 128.097656 7.652344 L 123.488281 7.652344 L 123.488281 7.511719 L 123.625 7.511719 L 123.625 9.53125 L 123.488281 9.53125 L 123.488281 9.390625 L 128.953125 9.390625 L 128.953125 9.53125 L 128.8125 9.53125 L 128.8125 8.949219 L 128.953125 8.949219 L 128.953125 9.089844 L 124.074219 9.089844 Z M 124.355469 8.949219 L 124.214844 8.949219 L 124.214844 8.808594 L 129.09375 8.808594 L 129.09375 9.671875 L 123.347656 9.671875 L 123.347656 7.371094 L 127.957031 7.371094 L 127.957031 7.511719 L 127.816406 7.511719 L 127.816406 6.695313 L 127.957031 6.695313 L 127.957031 6.835938 L 123.328125 6.835938 L 123.328125 5.972656 L 128.824219 5.972656 L 128.824219 8.199219 L 124.214844 8.199219 L 124.214844 8.058594 L 124.355469 8.058594 Z M 128.953125 8.949219 L 128.953125 9.53125 L 123.488281 9.53125 L 123.488281 7.511719 L 127.957031 7.511719 L 127.957031 6.695313 L 123.46875 6.695313 L 123.46875 6.113281 L 128.683594 6.113281 L 128.683594 8.058594 L 124.214844 8.058594 L 124.214844 8.949219 Z M 126.421875 3.671875 C 126.421875 4.730469 125.542969 5.449219 124.339844 5.449219 C 123.136719 5.449219 122.265625 4.730469 122.265625 3.671875 C 122.265625 2.601563 123.136719 1.875 124.339844 1.875 C 125.542969 1.875 126.421875 2.601563 126.421875 3.671875 Z M 122.976563 3.671875 C 122.976563 4.363281 123.558594 4.855469 124.339844 4.855469 C 125.128906 4.855469 125.703125 4.363281 125.703125 3.671875 C 125.703125 2.972656 125.128906 2.476563 124.339844 2.476563 C 123.558594 2.476563 122.976563 2.972656 122.976563 3.671875 Z M 128.683594 5.71875 L 127.949219 5.71875 L 127.949219 1.589844 L 128.683594 1.589844 Z M 128.683594 5.71875 "
     id="path15" />
  <path
     fill-rule="nonzero"
     fill="rgb(0%, 0%, 0%)"
     fill-opacity="1"
     d="M 133.058594 2.054688 L 133.058594 2.648438 L 132.921875 2.648438 L 132.921875 2.507813 L 135.875 2.507813 L 135.859375 2.660156 C 135.832031 2.988281 135.761719 3.296875 135.652344 3.578125 L 135.621094 3.664063 L 132.523438 3.800781 L 132.515625 3.664063 L 132.652344 3.632813 L 132.777344 4.234375 L 132.640625 4.261719 L 132.632813 4.125 L 135.5 3.90625 L 135.34375 4.144531 C 134.832031 4.921875 133.921875 5.507813 132.609375 5.90625 L 132.570313 5.773438 L 132.695313 5.710938 L 132.976563 6.292969 L 132.847656 6.355469 L 132.808594 6.222656 C 135.171875 5.5 136.351563 4.113281 136.351563 2.054688 L 136.492188 2.054688 L 136.492188 2.195313 L 132.921875 2.195313 L 132.921875 2.054688 Z M 132.78125 1.914063 L 136.632813 1.914063 L 136.632813 2.054688 C 136.632813 4.25 135.386719 5.730469 132.890625 6.488281 L 132.773438 6.523438 L 132.375 5.683594 L 132.53125 5.636719 C 133.773438 5.257813 134.636719 4.710938 135.109375 3.988281 L 135.226563 4.066406 L 135.238281 4.207031 L 132.53125 4.414063 L 132.34375 3.53125 L 135.515625 3.386719 L 135.523438 3.527344 L 135.390625 3.476563 C 135.492188 3.21875 135.554688 2.9375 135.582031 2.636719 L 135.71875 2.648438 L 135.71875 2.789063 L 132.78125 2.789063 Z M 134.5 7.113281 L 138.390625 7.113281 L 138.390625 9.082031 L 134.359375 9.082031 L 134.359375 7.113281 Z M 134.5 7.394531 L 134.5 7.253906 L 134.640625 7.253906 L 134.640625 8.941406 L 134.5 8.941406 L 134.5 8.800781 L 138.25 8.800781 L 138.25 8.941406 L 138.113281 8.941406 L 138.113281 7.253906 L 138.25 7.253906 L 138.25 7.394531 Z M 133.773438 9.390625 L 138.980469 9.390625 L 138.980469 9.53125 L 138.839844 9.53125 L 138.839844 6.667969 L 138.980469 6.667969 L 138.980469 6.808594 L 133.773438 6.808594 L 133.773438 6.667969 L 133.914063 6.667969 L 133.914063 9.53125 L 133.773438 9.53125 Z M 133.632813 9.671875 L 133.632813 6.527344 L 139.117188 6.527344 L 139.117188 9.671875 Z M 138.375 1.597656 L 138.375 3.855469 L 136.472656 3.855469 L 136.472656 3.714844 L 136.613281 3.714844 L 136.613281 4.328125 L 136.472656 4.328125 L 136.472656 4.1875 L 138.375 4.1875 L 138.375 6.238281 L 138.234375 6.238281 L 138.234375 6.097656 L 138.980469 6.097656 L 138.980469 6.238281 L 138.839844 6.238281 L 138.839844 1.597656 L 138.980469 1.597656 L 138.980469 1.738281 L 138.234375 1.738281 L 138.234375 1.597656 Z M 138.09375 1.457031 L 139.117188 1.457031 L 139.117188 6.378906 L 138.09375 6.378906 L 138.09375 4.328125 L 138.234375 4.328125 L 138.234375 4.464844 L 136.335938 4.464844 L 136.335938 3.574219 L 138.234375 3.574219 L 138.234375 3.714844 L 138.09375 3.714844 Z M 138.980469 1.597656 L 138.980469 6.238281 L 138.234375 6.238281 L 138.234375 4.328125 L 136.472656 4.328125 L 136.472656 3.714844 L 138.234375 3.714844 L 138.234375 1.597656 Z M 133.773438 6.667969 L 138.980469 6.667969 L 138.980469 9.53125 L 133.773438 9.53125 Z M 134.5 8.941406 L 138.25 8.941406 L 138.25 7.253906 L 134.5 7.253906 Z M 136.492188 2.054688 C 136.492188 4.101563 135.351563 5.59375 132.847656 6.355469 L 132.570313 5.773438 C 133.871094 5.375 134.742188 4.800781 135.226563 4.066406 L 132.640625 4.261719 L 132.515625 3.664063 L 135.523438 3.527344 C 135.628906 3.25 135.695313 2.960938 135.71875 2.648438 L 132.921875 2.648438 L 132.921875 2.054688 Z M 136.492188 2.054688 "
     id="path17" />
  <path
     fill-rule="nonzero"
     fill="rgb(0%, 0%, 0%)"
     fill-opacity="1"
     d="M 143.234375 2.8125 L 145.375 2.8125 L 145.375 5.730469 L 143.09375 5.730469 L 143.09375 2.8125 Z M 143.234375 3.09375 L 143.234375 2.953125 L 143.375 2.953125 L 143.375 5.59375 L 143.234375 5.59375 L 143.234375 5.453125 L 145.234375 5.453125 L 145.234375 5.59375 L 145.09375 5.59375 L 145.09375 2.953125 L 145.234375 2.953125 L 145.234375 3.09375 Z M 144.464844 8.035156 L 144.464844 6.042969 L 147.199219 6.042969 L 147.199219 6.183594 L 147.058594 6.183594 L 147.058594 5.59375 L 147.199219 5.59375 L 147.199219 5.730469 L 145.832031 5.730469 L 145.832031 2.8125 L 147.21875 2.8125 L 147.21875 2.953125 L 147.078125 2.953125 L 147.078125 2.359375 L 147.21875 2.359375 L 147.21875 2.5 L 141.25 2.5 L 141.25 2.359375 L 141.390625 2.359375 L 141.390625 2.953125 L 141.25 2.953125 L 141.25 2.8125 L 142.636719 2.8125 L 142.636719 5.730469 L 141.269531 5.730469 L 141.269531 5.59375 L 141.40625 5.59375 L 141.40625 6.183594 L 141.269531 6.183594 L 141.269531 6.042969 L 144 6.042969 L 144 8.171875 L 140.601563 8.171875 L 140.601563 8.035156 L 140.742188 8.035156 L 140.742188 8.636719 L 140.601563 8.636719 L 140.601563 8.496094 L 147.902344 8.496094 L 147.902344 8.636719 L 147.761719 8.636719 L 147.761719 8.035156 L 147.902344 8.035156 L 147.902344 8.171875 L 144.464844 8.171875 Z M 144.746094 8.035156 L 144.605469 8.035156 L 144.605469 7.894531 L 148.042969 7.894531 L 148.042969 8.773438 L 140.464844 8.773438 L 140.464844 7.894531 L 143.863281 7.894531 L 143.863281 8.035156 L 143.722656 8.035156 L 143.722656 6.183594 L 143.863281 6.183594 L 143.863281 6.324219 L 141.128906 6.324219 L 141.128906 5.453125 L 142.496094 5.453125 L 142.496094 5.59375 L 142.355469 5.59375 L 142.355469 2.953125 L 142.496094 2.953125 L 142.496094 3.09375 L 141.109375 3.09375 L 141.109375 2.21875 L 147.359375 2.21875 L 147.359375 3.09375 L 145.972656 3.09375 L 145.972656 2.953125 L 146.109375 2.953125 L 146.109375 5.59375 L 145.972656 5.59375 L 145.972656 5.453125 L 147.339844 5.453125 L 147.339844 6.324219 L 144.605469 6.324219 L 144.605469 6.183594 L 144.746094 6.183594 Z M 147.902344 8.035156 L 147.902344 8.636719 L 140.601563 8.636719 L 140.601563 8.035156 L 143.863281 8.035156 L 143.863281 6.183594 L 141.269531 6.183594 L 141.269531 5.59375 L 142.496094 5.59375 L 142.496094 2.953125 L 141.25 2.953125 L 141.25 2.359375 L 147.21875 2.359375 L 147.21875 2.953125 L 145.972656 2.953125 L 145.972656 5.59375 L 147.199219 5.59375 L 147.199219 6.183594 L 144.605469 6.183594 L 144.605469 8.035156 Z M 143.234375 5.59375 L 145.234375 5.59375 L 145.234375 2.953125 L 143.234375 2.953125 Z M 143.234375 5.59375 "
     id="path19" />
  <path
     fill-rule="nonzero"
     fill="rgb(0%, 0%, 0%)"
     fill-opacity="1"
     d="M 154.75 7.28125 L 155.496094 7.28125 L 155.496094 7.421875 L 155.355469 7.421875 L 155.355469 1.597656 L 155.496094 1.597656 L 155.496094 1.738281 L 154.75 1.738281 L 154.75 1.597656 L 154.890625 1.597656 L 154.890625 3.488281 L 152.476563 3.488281 L 152.476563 3.347656 L 152.617188 3.347656 L 152.617188 3.949219 L 152.476563 3.949219 L 152.476563 3.808594 L 154.890625 3.808594 L 154.890625 7.421875 L 154.75 7.421875 Z M 154.609375 7.5625 L 154.609375 3.949219 L 154.75 3.949219 L 154.75 4.089844 L 152.339844 4.089844 L 152.339844 3.207031 L 154.75 3.207031 L 154.75 3.347656 L 154.609375 3.347656 L 154.609375 1.457031 L 155.632813 1.457031 L 155.632813 7.5625 Z M 153.539063 5.296875 C 152.539063 5.507813 151.378906 5.613281 150.066406 5.625 L 149.921875 5.625 L 149.921875 2.199219 L 150.0625 2.199219 L 150.0625 2.339844 L 149.328125 2.339844 L 149.328125 2.199219 L 149.46875 2.199219 L 149.46875 6.105469 L 149.328125 6.105469 L 149.328125 5.964844 L 149.9375 5.964844 C 151.304688 5.964844 152.519531 5.859375 153.582031 5.652344 L 153.609375 5.789063 L 153.472656 5.8125 L 153.371094 5.183594 L 153.511719 5.160156 Z M 153.625 4.992188 L 153.769531 5.902344 L 153.636719 5.925781 C 152.558594 6.136719 151.324219 6.242188 149.9375 6.242188 L 149.1875 6.242188 L 149.1875 2.058594 L 150.203125 2.058594 L 150.203125 5.484375 L 150.0625 5.484375 L 150.0625 5.34375 C 151.359375 5.335938 152.5 5.226563 153.480469 5.023438 Z M 150.929688 8.859375 L 150.929688 6.9375 L 151.070313 6.9375 L 151.070313 7.078125 L 150.332031 7.078125 L 150.332031 6.9375 L 150.472656 6.9375 L 150.472656 9.460938 L 150.332031 9.460938 L 150.332031 9.320313 L 155.699219 9.320313 L 155.699219 9.460938 L 155.5625 9.460938 L 155.5625 8.859375 L 155.699219 8.859375 L 155.699219 9 L 150.929688 9 Z M 151.210938 8.859375 L 151.070313 8.859375 L 151.070313 8.71875 L 155.839844 8.71875 L 155.839844 9.601563 L 150.191406 9.601563 L 150.191406 6.796875 L 151.210938 6.796875 Z M 155.699219 8.859375 L 155.699219 9.460938 L 150.332031 9.460938 L 150.332031 6.9375 L 151.070313 6.9375 L 151.070313 8.859375 Z M 153.609375 5.789063 C 152.371094 6.03125 151.277344 6.105469 149.9375 6.105469 L 149.328125 6.105469 L 149.328125 2.199219 L 150.0625 2.199219 L 150.0625 5.484375 C 151.3125 5.476563 152.34375 5.402344 153.511719 5.160156 Z M 154.75 3.949219 L 152.476563 3.949219 L 152.476563 3.347656 L 154.75 3.347656 L 154.75 1.597656 L 155.496094 1.597656 L 155.496094 7.421875 L 154.75 7.421875 Z M 154.75 3.949219 "
     id="path21" />
  <path
     fill-rule="nonzero"
     fill="rgb(0%, 0%, 0%)"
     fill-opacity="1"
     d="M 163.582031 6.074219 L 158.65625 6.074219 L 158.65625 4.519531 L 163.320313 4.519531 L 163.320313 4.660156 L 163.179688 4.660156 L 163.179688 4.074219 L 163.320313 4.074219 L 163.320313 4.214844 L 158.65625 4.214844 L 158.65625 2.742188 L 163.5 2.742188 L 163.5 2.882813 L 163.359375 2.882813 L 163.359375 2.289063 L 163.5 2.289063 L 163.5 2.429688 L 158.050781 2.429688 L 158.050781 2.289063 L 158.191406 2.289063 L 158.191406 6.527344 L 158.050781 6.527344 L 158.050781 6.386719 L 163.582031 6.386719 L 163.582031 6.527344 L 163.441406 6.527344 L 163.441406 5.933594 L 163.582031 5.933594 Z M 163.722656 5.792969 L 163.722656 6.664063 L 157.914063 6.664063 L 157.914063 2.148438 L 163.640625 2.148438 L 163.640625 3.023438 L 158.796875 3.023438 L 158.796875 2.882813 L 158.9375 2.882813 L 158.9375 4.074219 L 158.796875 4.074219 L 158.796875 3.933594 L 163.460938 3.933594 L 163.460938 4.796875 L 158.796875 4.796875 L 158.796875 4.660156 L 158.9375 4.660156 L 158.9375 5.933594 L 158.796875 5.933594 L 158.796875 5.792969 Z M 157.25 7.996094 L 157.25 8.597656 L 157.109375 8.597656 L 157.109375 8.457031 L 164.417969 8.457031 L 164.417969 8.597656 L 164.277344 8.597656 L 164.277344 7.996094 L 164.417969 7.996094 L 164.417969 8.136719 L 157.109375 8.136719 L 157.109375 7.996094 Z M 156.96875 7.855469 L 164.558594 7.855469 L 164.558594 8.738281 L 156.96875 8.738281 Z M 164.417969 7.996094 L 164.417969 8.597656 L 157.109375 8.597656 L 157.109375 7.996094 Z M 163.582031 6.527344 L 158.050781 6.527344 L 158.050781 2.289063 L 163.5 2.289063 L 163.5 2.882813 L 158.796875 2.882813 L 158.796875 4.074219 L 163.320313 4.074219 L 163.320313 4.660156 L 158.796875 4.660156 L 158.796875 5.933594 L 163.582031 5.933594 Z M 163.582031 6.527344 "
     id="path23" />
  <path
     fill-rule="nonzero"
     fill="rgb(83.529663%, 90.979004%, 83.139038%)"
     fill-opacity="1"
     stroke-width="2"
     stroke-linecap="butt"
     stroke-linejoin="miter"
     stroke="rgb(50.979614%, 70.199585%, 39.99939%)"
     stroke-opacity="1"
     stroke-miterlimit="4"
     d="M 20.999007 51.001318 L 160.999348 51.001318 L 160.999348 131.002259 L 20.999007 131.002259 Z M 20.999007 51.001318 "
     transform="matrix(0.747989, 0, 0, 0.747989, 0, 0)"
     id="path25" />
  <path
     fill-rule="nonzero"
     fill="rgb(0%, 0%, 0%)"
     fill-opacity="1"
     d="M 50.238281 63.167969 L 50.238281 63.699219 L 50.097656 63.699219 L 50.097656 63.558594 L 51.648438 63.558594 L 51.648438 64.148438 L 51.507813 64.148438 L 51.507813 64.007813 L 52.199219 64.007813 L 52.199219 64.148438 L 52.058594 64.148438 L 52.058594 59.328125 L 52.199219 59.328125 L 52.199219 59.46875 L 51.507813 59.46875 L 51.507813 59.328125 L 51.648438 59.328125 L 51.648438 63.308594 L 50.097656 63.308594 L 50.097656 63.167969 Z M 49.960938 63.027344 L 51.507813 63.027344 L 51.507813 63.167969 L 51.367188 63.167969 L 51.367188 59.1875 L 52.339844 59.1875 L 52.339844 64.289063 L 51.367188 64.289063 L 51.367188 63.699219 L 51.507813 63.699219 L 51.507813 63.839844 L 49.960938 63.839844 Z M 49.003906 59.84375 C 49.359375 59.84375 49.648438 59.910156 49.867188 60.046875 C 50.109375 60.195313 50.230469 60.398438 50.230469 60.65625 C 50.230469 60.914063 50.109375 61.117188 49.867188 61.265625 C 49.648438 61.402344 49.359375 61.46875 49.003906 61.46875 C 48.191406 61.46875 47.785156 61.199219 47.785156 60.65625 C 47.785156 60.398438 47.90625 60.195313 48.144531 60.046875 C 48.363281 59.910156 48.648438 59.84375 49.003906 59.84375 Z M 49.003906 60.121094 C 48.378906 60.121094 48.066406 60.300781 48.066406 60.65625 C 48.066406 60.808594 48.144531 60.933594 48.292969 61.027344 C 48.464844 61.136719 48.703125 61.1875 49.003906 61.1875 C 49.308594 61.1875 49.546875 61.136719 49.71875 61.027344 C 49.875 60.933594 49.949219 60.808594 49.949219 60.65625 C 49.949219 60.503906 49.875 60.378906 49.71875 60.285156 C 49.546875 60.175781 49.308594 60.121094 49.003906 60.121094 Z M 49.003906 61.71875 C 49.503906 61.71875 49.902344 61.621094 50.195313 61.421875 C 50.472656 61.230469 50.613281 60.976563 50.613281 60.65625 C 50.613281 60.339844 50.476563 60.085938 50.195313 59.898438 C 49.902344 59.703125 49.503906 59.601563 49.003906 59.601563 C 48.507813 59.601563 48.113281 59.703125 47.820313 59.898438 C 47.542969 60.089844 47.402344 60.339844 47.402344 60.65625 C 47.402344 60.976563 47.542969 61.230469 47.820313 61.421875 C 48.113281 61.621094 48.507813 61.71875 49.003906 61.71875 Z M 49.003906 62 C 48.449219 62 48.003906 61.882813 47.664063 61.652344 C 47.304688 61.40625 47.121094 61.074219 47.121094 60.65625 C 47.121094 60.242188 47.304688 59.910156 47.664063 59.667969 C 48.003906 59.4375 48.453125 59.320313 49.003906 59.320313 C 49.5625 59.320313 50.011719 59.4375 50.351563 59.667969 C 50.714844 59.910156 50.894531 60.242188 50.894531 60.65625 C 50.894531 61.074219 50.714844 61.40625 50.351563 61.652344 C 50.011719 61.882813 49.5625 62 49.003906 62 Z M 48.671875 64.007813 L 49.371094 64.007813 L 49.371094 64.148438 L 49.230469 64.148438 L 49.230469 62.679688 L 49.363281 62.671875 C 50.019531 62.621094 50.601563 62.546875 51.105469 62.449219 L 51.132813 62.585938 L 50.992188 62.601563 L 50.9375 62.089844 L 51.078125 62.074219 L 51.101563 62.210938 C 50.125 62.371094 48.703125 62.449219 46.832031 62.449219 L 46.832031 62.308594 L 46.972656 62.285156 L 47.0625 62.859375 L 46.921875 62.882813 L 46.921875 62.742188 C 47.65625 62.742188 48.234375 62.730469 48.664063 62.707031 L 48.8125 62.699219 L 48.8125 64.148438 L 48.671875 64.148438 Z M 48.53125 64.289063 L 48.53125 62.847656 L 48.671875 62.847656 L 48.679688 62.984375 C 48.246094 63.011719 47.660156 63.023438 46.921875 63.023438 L 46.800781 63.023438 L 46.667969 62.167969 L 46.832031 62.167969 C 48.6875 62.167969 50.097656 62.089844 51.054688 61.9375 L 51.203125 61.910156 L 51.285156 62.699219 L 51.160156 62.722656 C 50.644531 62.824219 50.054688 62.898438 49.382813 62.949219 L 49.371094 62.808594 L 49.511719 62.808594 L 49.511719 64.289063 Z M 52.945313 66.683594 L 48.835938 66.683594 L 48.835938 65.640625 L 53.085938 65.640625 L 53.085938 66.683594 Z M 52.945313 66.402344 L 52.945313 66.542969 L 52.804688 66.542969 L 52.804688 65.78125 L 52.945313 65.78125 L 52.945313 65.921875 L 48.976563 65.921875 L 48.976563 65.78125 L 49.117188 65.78125 L 49.117188 66.542969 L 48.976563 66.542969 L 48.976563 66.402344 Z M 52.945313 65.355469 L 48.835938 65.355469 L 48.835938 64.460938 L 48.976563 64.460938 L 48.976563 64.601563 L 48.25 64.601563 L 48.25 64.460938 L 48.390625 64.460938 L 48.390625 67.128906 L 48.25 67.128906 L 48.25 66.988281 L 53.664063 66.988281 L 53.664063 67.128906 L 53.523438 67.128906 L 53.523438 64.460938 L 53.664063 64.460938 L 53.664063 64.601563 L 52.945313 64.601563 L 52.945313 64.460938 L 53.085938 64.460938 L 53.085938 65.355469 Z M 52.945313 65.074219 L 52.945313 65.214844 L 52.804688 65.214844 L 52.804688 64.320313 L 53.804688 64.320313 L 53.804688 67.269531 L 48.109375 67.269531 L 48.109375 64.320313 L 49.117188 64.320313 L 49.117188 65.214844 L 48.976563 65.214844 L 48.976563 65.074219 Z M 53.101563 59.183594 L 53.101563 64.164063 L 52.960938 64.164063 L 52.960938 64.023438 L 53.664063 64.023438 L 53.664063 64.164063 L 53.523438 64.164063 L 53.523438 59.183594 L 53.664063 59.183594 L 53.664063 59.324219 L 52.960938 59.324219 L 52.960938 59.183594 Z M 52.824219 59.042969 L 53.804688 59.042969 L 53.804688 64.304688 L 52.824219 64.304688 Z M 53.664063 59.183594 L 53.664063 64.164063 L 52.960938 64.164063 L 52.960938 59.183594 Z M 52.945313 64.460938 L 53.664063 64.460938 L 53.664063 67.128906 L 48.25 67.128906 L 48.25 64.460938 L 48.976563 64.460938 L 48.976563 65.214844 L 52.945313 65.214844 Z M 52.945313 65.78125 L 48.976563 65.78125 L 48.976563 66.542969 L 52.945313 66.542969 Z M 48.671875 62.847656 C 48.027344 62.882813 47.414063 62.882813 46.921875 62.882813 L 46.832031 62.308594 C 47.945313 62.308594 49.742188 62.289063 51.078125 62.074219 L 51.132813 62.585938 C 50.585938 62.695313 49.972656 62.765625 49.371094 62.808594 L 49.371094 64.148438 L 48.671875 64.148438 Z M 49.003906 61.859375 C 47.964844 61.859375 47.261719 61.402344 47.261719 60.65625 C 47.261719 59.921875 47.964844 59.460938 49.003906 59.460938 C 50.054688 59.460938 50.753906 59.921875 50.753906 60.65625 C 50.753906 61.402344 50.054688 61.859375 49.003906 61.859375 Z M 49.003906 59.984375 C 48.347656 59.984375 47.925781 60.242188 47.925781 60.65625 C 47.925781 61.070313 48.347656 61.328125 49.003906 61.328125 C 49.660156 61.328125 50.089844 61.070313 50.089844 60.65625 C 50.089844 60.242188 49.660156 59.984375 49.003906 59.984375 Z M 51.507813 63.167969 L 51.507813 59.328125 L 52.199219 59.328125 L 52.199219 64.148438 L 51.507813 64.148438 L 51.507813 63.699219 L 50.097656 63.699219 L 50.097656 63.167969 Z M 51.507813 63.167969 "
     id="path27" />
  <path
     fill-rule="nonzero"
     fill="rgb(0%, 0%, 0%)"
     fill-opacity="1"
     d="M 57.871094 59.652344 L 57.871094 60.242188 L 57.730469 60.242188 L 57.730469 60.101563 L 60.683594 60.101563 L 60.667969 60.253906 C 60.640625 60.585938 60.570313 60.890625 60.460938 61.171875 L 60.429688 61.257813 L 57.332031 61.398438 L 57.324219 61.257813 L 57.460938 61.230469 L 57.589844 61.828125 L 57.449219 61.859375 L 57.441406 61.71875 L 60.308594 61.5 L 60.152344 61.738281 C 59.640625 62.515625 58.730469 63.101563 57.417969 63.5 L 57.378906 63.367188 L 57.503906 63.304688 L 57.785156 63.890625 L 57.65625 63.949219 L 57.617188 63.816406 C 59.980469 63.097656 61.160156 61.707031 61.160156 59.652344 L 61.300781 59.652344 L 61.300781 59.789063 L 57.730469 59.789063 L 57.730469 59.652344 Z M 57.589844 59.511719 L 61.441406 59.511719 L 61.441406 59.652344 C 61.441406 61.847656 60.195313 63.324219 57.699219 64.085938 L 57.582031 64.121094 L 57.183594 63.28125 L 57.339844 63.234375 C 58.582031 62.855469 59.445313 62.304688 59.917969 61.585938 L 60.035156 61.660156 L 60.046875 61.800781 L 57.339844 62.007813 L 57.152344 61.125 L 60.324219 60.984375 L 60.332031 61.121094 L 60.199219 61.070313 C 60.300781 60.816406 60.363281 60.535156 60.390625 60.230469 L 60.53125 60.242188 L 60.53125 60.382813 L 57.589844 60.382813 Z M 59.308594 64.707031 L 63.199219 64.707031 L 63.199219 66.675781 L 59.167969 66.675781 L 59.167969 64.707031 Z M 59.308594 64.988281 L 59.308594 64.847656 L 59.449219 64.847656 L 59.449219 66.535156 L 59.308594 66.535156 L 59.308594 66.394531 L 63.0625 66.394531 L 63.0625 66.535156 L 62.921875 66.535156 L 62.921875 64.847656 L 63.0625 64.847656 L 63.0625 64.988281 Z M 58.582031 66.988281 L 63.789063 66.988281 L 63.789063 67.128906 L 63.648438 67.128906 L 63.648438 64.265625 L 63.789063 64.265625 L 63.789063 64.40625 L 58.582031 64.40625 L 58.582031 64.265625 L 58.722656 64.265625 L 58.722656 67.128906 L 58.582031 67.128906 Z M 58.441406 67.269531 L 58.441406 64.125 L 63.929688 64.125 L 63.929688 67.269531 Z M 63.183594 59.191406 L 63.183594 61.453125 L 61.285156 61.453125 L 61.285156 61.3125 L 61.421875 61.3125 L 61.421875 61.921875 L 61.285156 61.921875 L 61.285156 61.78125 L 63.183594 61.78125 L 63.183594 63.832031 L 63.042969 63.832031 L 63.042969 63.691406 L 63.789063 63.691406 L 63.789063 63.832031 L 63.648438 63.832031 L 63.648438 59.191406 L 63.789063 59.191406 L 63.789063 59.332031 L 63.042969 59.332031 L 63.042969 59.191406 Z M 62.902344 59.050781 L 63.929688 59.050781 L 63.929688 63.972656 L 62.902344 63.972656 L 62.902344 61.921875 L 63.042969 61.921875 L 63.042969 62.0625 L 61.144531 62.0625 L 61.144531 61.171875 L 63.042969 61.171875 L 63.042969 61.3125 L 62.902344 61.3125 Z M 63.789063 59.191406 L 63.789063 63.832031 L 63.042969 63.832031 L 63.042969 61.921875 L 61.285156 61.921875 L 61.285156 61.3125 L 63.042969 61.3125 L 63.042969 59.191406 Z M 58.582031 64.265625 L 63.789063 64.265625 L 63.789063 67.128906 L 58.582031 67.128906 Z M 59.308594 66.535156 L 63.0625 66.535156 L 63.0625 64.847656 L 59.308594 64.847656 Z M 61.300781 59.652344 C 61.300781 61.695313 60.160156 63.1875 57.65625 63.949219 L 57.378906 63.367188 C 58.679688 62.972656 59.550781 62.398438 60.035156 61.660156 L 57.449219 61.859375 L 57.324219 61.257813 L 60.332031 61.121094 C 60.441406 60.84375 60.503906 60.558594 60.53125 60.242188 L 57.730469 60.242188 L 57.730469 59.652344 Z M 61.300781 59.652344 "
     id="path29" />
  <path
     fill-rule="nonzero"
     fill="rgb(0%, 0%, 0%)"
     fill-opacity="1"
     d="M 68.042969 60.40625 L 70.183594 60.40625 L 70.183594 63.328125 L 67.902344 63.328125 L 67.902344 60.40625 Z M 68.042969 60.6875 L 68.042969 60.546875 L 68.183594 60.546875 L 68.183594 63.1875 L 68.042969 63.1875 L 68.042969 63.046875 L 70.042969 63.046875 L 70.042969 63.1875 L 69.902344 63.1875 L 69.902344 60.546875 L 70.042969 60.546875 L 70.042969 60.6875 Z M 69.273438 65.628906 L 69.273438 63.640625 L 72.007813 63.640625 L 72.007813 63.78125 L 71.871094 63.78125 L 71.871094 63.1875 L 72.007813 63.1875 L 72.007813 63.328125 L 70.640625 63.328125 L 70.640625 60.40625 L 72.027344 60.40625 L 72.027344 60.546875 L 71.886719 60.546875 L 71.886719 59.957031 L 72.027344 59.957031 L 72.027344 60.097656 L 66.058594 60.097656 L 66.058594 59.957031 L 66.199219 59.957031 L 66.199219 60.546875 L 66.058594 60.546875 L 66.058594 60.40625 L 67.445313 60.40625 L 67.445313 63.328125 L 66.078125 63.328125 L 66.078125 63.1875 L 66.214844 63.1875 L 66.214844 63.78125 L 66.078125 63.78125 L 66.078125 63.640625 L 68.8125 63.640625 L 68.8125 65.769531 L 65.414063 65.769531 L 65.414063 65.628906 L 65.550781 65.628906 L 65.550781 66.230469 L 65.414063 66.230469 L 65.414063 66.089844 L 72.710938 66.089844 L 72.710938 66.230469 L 72.570313 66.230469 L 72.570313 65.628906 L 72.710938 65.628906 L 72.710938 65.769531 L 69.273438 65.769531 Z M 69.554688 65.628906 L 69.414063 65.628906 L 69.414063 65.488281 L 72.851563 65.488281 L 72.851563 66.371094 L 65.273438 66.371094 L 65.273438 65.488281 L 68.671875 65.488281 L 68.671875 65.628906 L 68.53125 65.628906 L 68.53125 63.78125 L 68.671875 63.78125 L 68.671875 63.917969 L 65.9375 63.917969 L 65.9375 63.046875 L 67.304688 63.046875 L 67.304688 63.1875 L 67.164063 63.1875 L 67.164063 60.546875 L 67.304688 60.546875 L 67.304688 60.6875 L 65.917969 60.6875 L 65.917969 59.816406 L 72.167969 59.816406 L 72.167969 60.6875 L 70.78125 60.6875 L 70.78125 60.546875 L 70.921875 60.546875 L 70.921875 63.1875 L 70.78125 63.1875 L 70.78125 63.046875 L 72.148438 63.046875 L 72.148438 63.917969 L 69.414063 63.917969 L 69.414063 63.78125 L 69.554688 63.78125 Z M 72.710938 65.628906 L 72.710938 66.230469 L 65.414063 66.230469 L 65.414063 65.628906 L 68.671875 65.628906 L 68.671875 63.78125 L 66.078125 63.78125 L 66.078125 63.1875 L 67.304688 63.1875 L 67.304688 60.546875 L 66.058594 60.546875 L 66.058594 59.957031 L 72.027344 59.957031 L 72.027344 60.546875 L 70.78125 60.546875 L 70.78125 63.1875 L 72.007813 63.1875 L 72.007813 63.78125 L 69.414063 63.78125 L 69.414063 65.628906 Z M 68.042969 63.1875 L 70.042969 63.1875 L 70.042969 60.546875 L 68.042969 60.546875 Z M 68.042969 63.1875 "
     id="path31" />
  <path
     fill-rule="nonzero"
     fill="rgb(0%, 0%, 0%)"
     fill-opacity="1"
     d="M 79.558594 64.878906 L 80.304688 64.878906 L 80.304688 65.019531 L 80.164063 65.019531 L 80.164063 59.191406 L 80.304688 59.191406 L 80.304688 59.332031 L 79.558594 59.332031 L 79.558594 59.191406 L 79.699219 59.191406 L 79.699219 61.082031 L 77.289063 61.082031 L 77.289063 60.941406 L 77.425781 60.941406 L 77.425781 61.542969 L 77.289063 61.542969 L 77.289063 61.40625 L 79.699219 61.40625 L 79.699219 65.019531 L 79.558594 65.019531 Z M 79.417969 65.160156 L 79.417969 61.542969 L 79.558594 61.542969 L 79.558594 61.683594 L 77.148438 61.683594 L 77.148438 60.804688 L 79.558594 60.804688 L 79.558594 60.941406 L 79.417969 60.941406 L 79.417969 59.050781 L 80.445313 59.050781 L 80.445313 65.160156 Z M 78.347656 62.894531 C 77.347656 63.101563 76.1875 63.210938 74.875 63.21875 L 74.734375 63.21875 L 74.734375 59.792969 L 74.871094 59.792969 L 74.871094 59.933594 L 74.136719 59.933594 L 74.136719 59.792969 L 74.277344 59.792969 L 74.277344 63.699219 L 74.136719 63.699219 L 74.136719 63.558594 L 74.746094 63.558594 C 76.113281 63.558594 77.328125 63.453125 78.390625 63.246094 L 78.417969 63.382813 L 78.28125 63.40625 L 78.179688 62.777344 L 78.320313 62.757813 Z M 78.433594 62.589844 L 78.578125 63.496094 L 78.445313 63.523438 C 77.367188 63.734375 76.132813 63.839844 74.746094 63.839844 L 73.996094 63.839844 L 73.996094 59.652344 L 75.011719 59.652344 L 75.011719 63.078125 L 74.871094 63.078125 L 74.871094 62.9375 C 76.167969 62.929688 77.308594 62.824219 78.292969 62.617188 Z M 75.738281 66.453125 L 75.738281 64.535156 L 75.878906 64.535156 L 75.878906 64.671875 L 75.140625 64.671875 L 75.140625 64.535156 L 75.28125 64.535156 L 75.28125 67.054688 L 75.140625 67.054688 L 75.140625 66.914063 L 80.507813 66.914063 L 80.507813 67.054688 L 80.371094 67.054688 L 80.371094 66.453125 L 80.507813 66.453125 L 80.507813 66.59375 L 75.738281 66.59375 Z M 76.019531 66.453125 L 75.878906 66.453125 L 75.878906 66.3125 L 80.648438 66.3125 L 80.648438 67.195313 L 75 67.195313 L 75 64.394531 L 76.019531 64.394531 Z M 80.507813 66.453125 L 80.507813 67.054688 L 75.140625 67.054688 L 75.140625 64.535156 L 75.878906 64.535156 L 75.878906 66.453125 Z M 78.417969 63.382813 C 77.179688 63.628906 76.085938 63.699219 74.746094 63.699219 L 74.136719 63.699219 L 74.136719 59.792969 L 74.871094 59.792969 L 74.871094 63.078125 C 76.121094 63.070313 77.152344 63 78.320313 62.757813 Z M 79.558594 61.542969 L 77.289063 61.542969 L 77.289063 60.941406 L 79.558594 60.941406 L 79.558594 59.191406 L 80.304688 59.191406 L 80.304688 65.019531 L 79.558594 65.019531 Z M 79.558594 61.542969 "
     id="path33" />
  <path
     fill-rule="nonzero"
     fill="rgb(0%, 0%, 0%)"
     fill-opacity="1"
     d="M 88.390625 63.667969 L 83.464844 63.667969 L 83.464844 62.113281 L 88.128906 62.113281 L 88.128906 62.253906 L 87.988281 62.253906 L 87.988281 61.671875 L 88.128906 61.671875 L 88.128906 61.808594 L 83.464844 61.808594 L 83.464844 60.335938 L 88.308594 60.335938 L 88.308594 60.476563 L 88.167969 60.476563 L 88.167969 59.882813 L 88.308594 59.882813 L 88.308594 60.023438 L 82.863281 60.023438 L 82.863281 59.882813 L 83 59.882813 L 83 64.121094 L 82.863281 64.121094 L 82.863281 63.980469 L 88.390625 63.980469 L 88.390625 64.121094 L 88.25 64.121094 L 88.25 63.527344 L 88.390625 63.527344 Z M 88.53125 63.386719 L 88.53125 64.261719 L 82.722656 64.261719 L 82.722656 59.742188 L 88.449219 59.742188 L 88.449219 60.617188 L 83.605469 60.617188 L 83.605469 60.476563 L 83.746094 60.476563 L 83.746094 61.671875 L 83.605469 61.671875 L 83.605469 61.53125 L 88.269531 61.53125 L 88.269531 62.394531 L 83.605469 62.394531 L 83.605469 62.253906 L 83.746094 62.253906 L 83.746094 63.527344 L 83.605469 63.527344 L 83.605469 63.386719 Z M 82.058594 65.59375 L 82.058594 66.195313 L 81.917969 66.195313 L 81.917969 66.054688 L 89.226563 66.054688 L 89.226563 66.195313 L 89.085938 66.195313 L 89.085938 65.59375 L 89.226563 65.59375 L 89.226563 65.734375 L 81.917969 65.734375 L 81.917969 65.59375 Z M 81.777344 65.453125 L 89.367188 65.453125 L 89.367188 66.335938 L 81.777344 66.335938 Z M 89.226563 65.59375 L 89.226563 66.195313 L 81.917969 66.195313 L 81.917969 65.59375 Z M 88.390625 64.121094 L 82.863281 64.121094 L 82.863281 59.882813 L 88.308594 59.882813 L 88.308594 60.476563 L 83.605469 60.476563 L 83.605469 61.671875 L 88.128906 61.671875 L 88.128906 62.253906 L 83.605469 62.253906 L 83.605469 63.527344 L 88.390625 63.527344 Z M 88.390625 64.121094 "
     id="path35" />
  <path
     fill-rule="nonzero"
     fill="rgb(0%, 0%, 0%)"
     fill-opacity="1"
     d="M 57.300781 78.273438 L 57.683594 78.09375 L 57.730469 78.1875 L 57.640625 78.242188 C 57.054688 77.289063 56.761719 76.191406 56.761719 74.949219 C 56.761719 73.714844 57.054688 72.617188 57.640625 71.65625 L 57.730469 71.710938 L 57.6875 71.808594 L 57.300781 71.632813 L 57.347656 71.535156 L 57.433594 71.589844 C 56.785156 72.644531 56.460938 73.761719 56.460938 74.949219 C 56.460938 76.132813 56.785156 77.253906 57.433594 78.3125 L 57.347656 78.367188 Z M 57.390625 78.464844 L 57.304688 78.503906 L 57.257813 78.425781 C 56.585938 77.332031 56.25 76.171875 56.25 74.949219 C 56.25 73.722656 56.585938 72.566406 57.257813 71.480469 L 57.304688 71.402344 L 57.882813 71.664063 L 57.820313 71.765625 C 57.253906 72.691406 56.972656 73.753906 56.972656 74.949219 C 56.972656 76.152344 57.253906 77.210938 57.820313 78.132813 L 57.878906 78.230469 Z M 57.347656 78.367188 C 56.726563 77.359375 56.355469 76.277344 56.355469 74.949219 C 56.355469 73.628906 56.726563 72.539063 57.347656 71.535156 L 57.730469 71.710938 C 57.144531 72.675781 56.867188 73.804688 56.867188 74.949219 C 56.867188 76.09375 57.144531 77.230469 57.730469 78.1875 Z M 57.347656 78.367188 "
     id="path37" />
  <path
     fill-rule="nonzero"
     fill="rgb(0%, 0%, 0%)"
     fill-opacity="1"
     d="M 60.011719 72.191406 C 60.335938 72.191406 60.605469 72.289063 60.816406 72.488281 C 61.03125 72.6875 61.140625 72.945313 61.140625 73.253906 C 61.140625 73.5625 61.03125 73.816406 60.816406 74.019531 C 60.605469 74.21875 60.335938 74.320313 60.011719 74.320313 C 59.691406 74.320313 59.421875 74.21875 59.210938 74.019531 C 58.996094 73.816406 58.890625 73.5625 58.890625 73.253906 C 58.890625 72.945313 58.996094 72.6875 59.210938 72.488281 C 59.421875 72.289063 59.691406 72.191406 60.011719 72.191406 Z M 60.011719 72.402344 C 59.746094 72.402344 59.527344 72.480469 59.355469 72.640625 C 59.183594 72.800781 59.101563 73.003906 59.101563 73.253906 C 59.101563 73.5 59.183594 73.707031 59.355469 73.867188 C 59.527344 74.027344 59.746094 74.109375 60.011719 74.109375 C 60.28125 74.109375 60.5 74.027344 60.671875 73.867188 C 60.84375 73.707031 60.929688 73.5 60.929688 73.253906 C 60.929688 73.003906 60.84375 72.800781 60.671875 72.640625 C 60.5 72.480469 60.28125 72.402344 60.011719 72.402344 Z M 62.890625 72.796875 L 62.890625 73.800781 L 61.351563 73.800781 L 61.390625 73.667969 C 61.433594 73.527344 61.453125 73.390625 61.453125 73.253906 C 61.453125 73.105469 61.433594 72.964844 61.386719 72.828125 L 61.339844 72.691406 L 62.890625 72.691406 Z M 62.679688 72.796875 L 62.785156 72.796875 L 62.785156 72.898438 L 61.484375 72.898438 L 61.484375 72.796875 L 61.585938 72.761719 C 61.640625 72.921875 61.664063 73.085938 61.664063 73.253906 C 61.664063 73.410156 61.640625 73.566406 61.59375 73.726563 L 61.492188 73.695313 L 61.492188 73.59375 L 62.785156 73.59375 L 62.785156 73.695313 L 62.679688 73.695313 Z M 62.890625 74.148438 L 62.890625 74.941406 L 62.785156 74.941406 L 62.785156 74.835938 L 63.34375 74.835938 L 63.34375 74.941406 L 63.238281 74.941406 L 63.238281 71.507813 L 63.34375 71.507813 L 63.34375 71.613281 L 62.785156 71.613281 L 62.785156 71.507813 L 62.890625 71.507813 L 62.890625 72.449219 L 61.183594 72.449219 L 61.152344 72.414063 C 60.875 72.097656 60.496094 71.9375 60.011719 71.9375 C 59.59375 71.9375 59.25 72.0625 58.980469 72.308594 C 58.710938 72.554688 58.574219 72.867188 58.574219 73.253906 C 58.574219 73.636719 58.710938 73.953125 58.980469 74.203125 C 59.25 74.449219 59.59375 74.574219 60.011719 74.574219 C 60.5 74.574219 60.886719 74.410156 61.171875 74.078125 L 61.203125 74.042969 L 62.890625 74.042969 Z M 62.679688 74.148438 L 62.785156 74.148438 L 62.785156 74.253906 L 61.25 74.253906 L 61.25 74.148438 L 61.332031 74.214844 C 61.003906 74.59375 60.566406 74.785156 60.011719 74.785156 C 59.539063 74.785156 59.148438 74.640625 58.835938 74.355469 C 58.523438 74.066406 58.363281 73.699219 58.363281 73.253906 C 58.363281 72.804688 58.523438 72.441406 58.835938 72.152344 C 59.144531 71.867188 59.539063 71.726563 60.011719 71.726563 C 60.558594 71.726563 60.992188 71.910156 61.308594 72.273438 L 61.230469 72.34375 L 61.230469 72.238281 L 62.785156 72.238281 L 62.785156 72.34375 L 62.679688 72.34375 L 62.679688 71.402344 L 63.449219 71.402344 L 63.449219 75.046875 L 62.679688 75.046875 Z M 62.683594 75.242188 L 62.144531 75.242188 L 62.144531 75.136719 L 62.25 75.136719 L 62.25 75.535156 C 62.25 76.179688 61.949219 76.695313 61.347656 77.078125 L 61.292969 77.113281 L 61.238281 77.078125 C 60.640625 76.730469 60.34375 76.21875 60.34375 75.535156 L 60.34375 75.136719 L 60.449219 75.136719 L 60.449219 75.242188 L 59.917969 75.242188 L 59.917969 75.136719 L 60.023438 75.136719 L 60.023438 75.535156 C 60.023438 75.863281 59.910156 76.179688 59.679688 76.480469 C 59.445313 76.789063 59.128906 77.015625 58.742188 77.160156 L 58.707031 77.0625 L 58.792969 77.003906 L 59.070313 77.414063 L 58.980469 77.472656 L 58.941406 77.375 C 59.476563 77.167969 59.851563 76.808594 60.078125 76.308594 L 60.183594 76.070313 L 60.273438 76.3125 C 60.46875 76.855469 60.824219 77.226563 61.335938 77.421875 L 61.296875 77.519531 L 61.257813 77.425781 C 61.75 77.214844 62.101563 76.839844 62.308594 76.292969 L 62.40625 76.039063 L 62.507813 76.289063 C 62.707031 76.796875 63.089844 77.160156 63.664063 77.375 L 63.625 77.472656 L 63.539063 77.414063 L 63.816406 77.003906 L 63.902344 77.0625 L 63.867188 77.164063 C 63.472656 77.027344 63.15625 76.808594 62.917969 76.503906 C 62.691406 76.207031 62.578125 75.882813 62.578125 75.535156 L 62.578125 75.136719 L 62.683594 75.136719 Z M 62.789063 75.03125 L 62.789063 75.535156 C 62.789063 75.835938 62.886719 76.117188 63.085938 76.375 C 63.296875 76.644531 63.578125 76.84375 63.9375 76.964844 L 64.066406 77.007813 L 63.667969 77.601563 L 63.589844 77.570313 C 62.960938 77.332031 62.53125 76.933594 62.308594 76.367188 L 62.40625 76.328125 L 62.507813 76.367188 C 62.273438 76.96875 61.886719 77.386719 61.339844 77.617188 L 61.300781 77.632813 L 61.257813 77.617188 C 60.691406 77.398438 60.292969 76.988281 60.074219 76.386719 L 60.171875 76.347656 L 60.269531 76.390625 C 60.023438 76.949219 59.605469 77.339844 59.019531 77.570313 L 58.941406 77.601563 L 58.542969 77.011719 L 58.667969 76.964844 C 59.019531 76.835938 59.300781 76.628906 59.511719 76.351563 C 59.710938 76.089844 59.8125 75.816406 59.8125 75.535156 L 59.8125 75.03125 L 60.554688 75.03125 L 60.554688 75.535156 C 60.554688 76.136719 60.816406 76.589844 61.34375 76.898438 L 61.289063 76.988281 L 61.234375 76.898438 C 61.773438 76.558594 62.039063 76.105469 62.039063 75.535156 L 62.039063 75.03125 Z M 62.683594 75.535156 C 62.683594 76.167969 63.128906 76.800781 63.902344 77.0625 L 63.625 77.472656 C 63.039063 77.25 62.609375 76.839844 62.40625 76.328125 C 62.21875 76.820313 61.855469 77.285156 61.296875 77.519531 C 60.71875 77.296875 60.355469 76.847656 60.171875 76.347656 C 59.957031 76.835938 59.546875 77.25 58.980469 77.472656 L 58.707031 77.0625 C 59.464844 76.78125 59.917969 76.128906 59.917969 75.535156 L 59.917969 75.136719 L 60.449219 75.136719 L 60.449219 75.535156 C 60.449219 76.082031 60.726563 76.660156 61.289063 76.988281 C 61.863281 76.625 62.144531 76.011719 62.144531 75.535156 L 62.144531 75.136719 L 62.683594 75.136719 Z M 61.25 74.148438 C 60.96875 74.476563 60.53125 74.679688 60.011719 74.679688 C 59.121094 74.679688 58.46875 74.085938 58.46875 73.253906 C 58.46875 72.417969 59.121094 71.832031 60.011719 71.832031 C 60.523438 71.832031 60.953125 72.027344 61.230469 72.34375 L 62.785156 72.34375 L 62.785156 71.507813 L 63.34375 71.507813 L 63.34375 74.941406 L 62.785156 74.941406 L 62.785156 74.148438 Z M 61.484375 72.796875 C 61.53125 72.9375 61.558594 73.089844 61.558594 73.253906 C 61.558594 73.414063 61.53125 73.5625 61.492188 73.695313 L 62.785156 73.695313 L 62.785156 72.796875 Z M 60.011719 72.296875 C 59.425781 72.296875 58.996094 72.695313 58.996094 73.253906 C 58.996094 73.8125 59.425781 74.214844 60.011719 74.214844 C 60.605469 74.214844 61.035156 73.8125 61.035156 73.253906 C 61.035156 72.695313 60.605469 72.296875 60.011719 72.296875 Z M 60.011719 72.296875 "
     id="path39" />
  <path
     fill-rule="nonzero"
     fill="rgb(0%, 0%, 0%)"
     fill-opacity="1"
     d="M 67.386719 73.179688 L 67.386719 73.625 L 67.28125 73.625 L 67.28125 73.519531 L 69.082031 73.519531 L 69.082031 75.910156 L 68.980469 75.910156 L 68.980469 75.808594 L 69.539063 75.808594 L 69.539063 75.910156 L 69.433594 75.910156 L 69.433594 71.507813 L 69.539063 71.507813 L 69.539063 71.613281 L 68.980469 71.613281 L 68.980469 71.507813 L 69.082031 71.507813 L 69.082031 73.285156 L 67.28125 73.285156 L 67.28125 73.179688 Z M 67.175781 73.074219 L 68.980469 73.074219 L 68.980469 73.179688 L 68.875 73.179688 L 68.875 71.402344 L 69.640625 71.402344 L 69.640625 76.015625 L 68.875 76.015625 L 68.875 73.625 L 68.980469 73.625 L 68.980469 73.726563 L 67.175781 73.726563 Z M 68.027344 74.480469 C 67.347656 74.613281 66.492188 74.675781 65.457031 74.675781 L 65.351563 74.675781 L 65.351563 72.347656 L 67.671875 72.347656 L 67.671875 72.453125 L 67.566406 72.453125 L 67.566406 72 L 67.671875 72 L 67.671875 72.105469 L 64.90625 72.105469 L 64.90625 72 L 65.011719 72 L 65.011719 75.023438 L 64.90625 75.023438 L 64.90625 74.917969 L 65.363281 74.917969 C 66.4375 74.917969 67.332031 74.855469 68.050781 74.722656 L 68.070313 74.828125 L 67.964844 74.84375 L 67.90625 74.390625 L 68.007813 74.378906 Z M 68.097656 74.253906 L 68.1875 74.914063 L 68.089844 74.929688 C 67.359375 75.0625 66.449219 75.128906 65.363281 75.128906 L 64.800781 75.128906 L 64.800781 71.894531 L 67.777344 71.894531 L 67.777344 72.558594 L 65.457031 72.558594 L 65.457031 72.453125 L 65.5625 72.453125 L 65.5625 74.574219 L 65.457031 74.574219 L 65.457031 74.46875 C 66.480469 74.46875 67.324219 74.402344 67.988281 74.273438 Z M 66.113281 76.996094 L 66.113281 75.589844 L 66.21875 75.589844 L 66.21875 75.695313 L 65.667969 75.695313 L 65.667969 75.589844 L 65.773438 75.589844 L 65.773438 77.445313 L 65.667969 77.445313 L 65.667969 77.339844 L 69.691406 77.339844 L 69.691406 77.445313 L 69.585938 77.445313 L 69.585938 76.996094 L 69.691406 76.996094 L 69.691406 77.101563 L 66.113281 77.101563 Z M 66.324219 76.996094 L 66.21875 76.996094 L 66.21875 76.890625 L 69.796875 76.890625 L 69.796875 77.550781 L 65.5625 77.550781 L 65.5625 75.484375 L 66.324219 75.484375 Z M 69.691406 76.996094 L 69.691406 77.445313 L 65.667969 77.445313 L 65.667969 75.589844 L 66.21875 75.589844 L 66.21875 76.996094 Z M 68.070313 74.828125 C 67.207031 74.984375 66.496094 75.023438 65.363281 75.023438 L 64.90625 75.023438 L 64.90625 72 L 67.671875 72 L 67.671875 72.453125 L 65.457031 72.453125 L 65.457031 74.574219 C 66.515625 74.574219 67.207031 74.53125 68.007813 74.378906 Z M 68.980469 73.179688 L 68.980469 71.507813 L 69.539063 71.507813 L 69.539063 75.910156 L 68.980469 75.910156 L 68.980469 73.625 L 67.28125 73.625 L 67.28125 73.179688 Z M 68.980469 73.179688 "
     id="path41" />
  <path
     fill-rule="nonzero"
     fill="rgb(0%, 0%, 0%)"
     fill-opacity="1"
     d="M 76.679688 75.484375 L 77.238281 75.484375 L 77.238281 75.589844 L 77.132813 75.589844 L 77.132813 71.507813 L 77.238281 71.507813 L 77.238281 71.613281 L 76.679688 71.613281 L 76.679688 71.507813 L 76.785156 71.507813 L 76.785156 73.3125 L 75.378906 73.3125 L 75.378906 73.207031 L 75.484375 73.207031 L 75.484375 73.65625 L 75.378906 73.65625 L 75.378906 73.550781 L 76.785156 73.550781 L 76.785156 75.589844 L 76.679688 75.589844 Z M 76.574219 75.695313 L 76.574219 73.65625 L 76.679688 73.65625 L 76.679688 73.761719 L 75.273438 73.761719 L 75.273438 73.101563 L 76.679688 73.101563 L 76.679688 73.207031 L 76.574219 73.207031 L 76.574219 71.402344 L 77.34375 71.402344 L 77.34375 75.695313 Z M 72.757813 71.980469 L 72.757813 72.429688 L 72.652344 72.429688 L 72.652344 72.328125 L 74.882813 72.328125 L 74.871094 72.441406 C 74.757813 73.574219 73.933594 74.382813 72.394531 74.867188 L 72.363281 74.765625 L 72.457031 74.714844 L 72.699219 75.152344 L 72.605469 75.207031 L 72.574219 75.105469 C 74.363281 74.527344 75.253906 73.484375 75.253906 71.980469 L 75.359375 71.980469 L 75.359375 72.085938 L 72.652344 72.085938 L 72.652344 71.980469 Z M 72.550781 71.875 L 75.464844 71.875 L 75.464844 71.980469 C 75.464844 73.585938 74.523438 74.695313 72.640625 75.304688 L 72.558594 75.332031 L 72.210938 74.707031 L 72.332031 74.667969 C 73.78125 74.210938 74.558594 73.460938 74.664063 72.421875 L 74.769531 72.429688 L 74.769531 72.535156 L 72.550781 72.535156 Z M 75.5625 75.167969 L 75.011719 75.167969 L 75.011719 75.0625 L 75.117188 75.0625 L 75.117188 75.339844 C 75.117188 75.796875 74.902344 76.203125 74.472656 76.554688 C 74.078125 76.875 73.589844 77.085938 73.007813 77.1875 L 72.992188 77.082031 L 73.085938 77.035156 L 73.308594 77.472656 L 73.214844 77.519531 L 73.191406 77.417969 C 74.183594 77.226563 74.851563 76.789063 75.191406 76.113281 L 75.285156 75.929688 L 75.378906 76.113281 C 75.722656 76.78125 76.382813 77.210938 77.359375 77.402344 L 77.339844 77.507813 L 77.246094 77.460938 L 77.46875 77.027344 L 77.5625 77.078125 L 77.542969 77.179688 C 76.964844 77.070313 76.484375 76.855469 76.097656 76.539063 C 75.671875 76.191406 75.457031 75.789063 75.457031 75.339844 L 75.457031 75.0625 L 75.5625 75.0625 Z M 75.667969 74.957031 L 75.667969 75.339844 C 75.667969 75.722656 75.855469 76.070313 76.230469 76.375 C 76.589844 76.671875 77.039063 76.871094 77.582031 76.972656 L 77.71875 77 L 77.398438 77.625 L 77.320313 77.609375 C 76.277344 77.40625 75.566406 76.9375 75.191406 76.210938 L 75.285156 76.160156 L 75.378906 76.207031 C 75.007813 76.945313 74.292969 77.417969 73.234375 77.625 L 73.15625 77.640625 L 72.832031 77.003906 L 72.972656 76.980469 C 73.519531 76.882813 73.972656 76.6875 74.339844 76.390625 C 74.714844 76.082031 74.90625 75.730469 74.90625 75.339844 L 74.90625 74.957031 Z M 75.5625 75.339844 C 75.5625 76.207031 76.5 76.875 77.5625 77.078125 L 77.339844 77.507813 C 76.449219 77.332031 75.644531 76.855469 75.285156 76.160156 C 74.929688 76.867188 74.113281 77.347656 73.214844 77.519531 L 72.992188 77.082031 C 74.066406 76.894531 75.011719 76.222656 75.011719 75.339844 L 75.011719 75.0625 L 75.5625 75.0625 Z M 75.359375 71.980469 C 75.359375 73.535156 74.332031 74.644531 72.605469 75.207031 L 72.363281 74.765625 C 73.792969 74.316406 74.660156 73.496094 74.769531 72.429688 L 72.652344 72.429688 L 72.652344 71.980469 Z M 76.679688 73.65625 L 75.378906 73.65625 L 75.378906 73.207031 L 76.679688 73.207031 L 76.679688 71.507813 L 77.238281 71.507813 L 77.238281 75.589844 L 76.679688 75.589844 Z M 76.679688 73.65625 "
     id="path43" />
  <path
     fill-rule="nonzero"
     fill="rgb(0%, 0%, 0%)"
     fill-opacity="1"
     d="M 78.675781 78.3125 C 79.332031 77.257813 79.65625 76.136719 79.65625 74.949219 C 79.65625 73.757813 79.332031 72.640625 78.675781 71.59375 L 78.765625 71.535156 L 78.8125 71.632813 L 78.433594 71.804688 L 78.390625 71.710938 L 78.480469 71.65625 C 79.0625 72.628906 79.355469 73.726563 79.355469 74.949219 C 79.355469 76.179688 79.0625 77.277344 78.480469 78.242188 L 78.390625 78.1875 L 78.433594 78.09375 L 78.8125 78.273438 L 78.765625 78.367188 Z M 78.804688 78.503906 L 78.238281 78.230469 L 78.300781 78.132813 C 78.863281 77.199219 79.144531 76.140625 79.144531 74.949219 C 79.144531 73.765625 78.863281 72.703125 78.300781 71.765625 L 78.238281 71.664063 L 78.808594 71.402344 L 78.855469 71.480469 C 79.53125 72.5625 79.867188 73.71875 79.867188 74.949219 C 79.867188 76.179688 79.53125 77.335938 78.855469 78.425781 Z M 78.390625 78.1875 C 78.96875 77.230469 79.25 76.09375 79.25 74.949219 C 79.25 73.804688 78.96875 72.675781 78.390625 71.710938 L 78.765625 71.535156 C 79.394531 72.539063 79.761719 73.628906 79.761719 74.949219 C 79.761719 76.277344 79.394531 77.359375 78.765625 78.367188 Z M 78.390625 78.1875 "
     id="path45" />
  <path
     fill-rule="nonzero"
     fill="rgb(83.529663%, 90.979004%, 83.139038%)"
     fill-opacity="1"
     stroke-width="2"
     stroke-linecap="butt"
     stroke-linejoin="miter"
     stroke="rgb(50.979614%, 70.199585%, 39.99939%)"
     stroke-opacity="1"
     stroke-miterlimit="4"
     d="M 201.002429 51.001318 L 350.998319 51.001318 L 350.998319 131.002259 L 201.002429 131.002259 Z M 201.002429 51.001318 "
     transform="matrix(0.747989, 0, 0, 0.747989, 0, 0)"
     id="path47" />
  <path
     fill-rule="nonzero"
     fill="rgb(0%, 0%, 0%)"
     fill-opacity="1"
     d="M 183.777344 60.03125 C 184.203125 60.03125 184.550781 60.136719 184.824219 60.351563 C 185.113281 60.574219 185.253906 60.863281 185.253906 61.222656 C 185.253906 61.578125 185.113281 61.871094 184.824219 62.09375 C 184.550781 62.304688 184.203125 62.410156 183.777344 62.410156 C 183.347656 62.410156 182.996094 62.304688 182.722656 62.09375 C 182.433594 61.871094 182.289063 61.578125 182.289063 61.222656 C 182.289063 60.863281 182.433594 60.574219 182.722656 60.351563 C 182.996094 60.136719 183.347656 60.03125 183.777344 60.03125 Z M 183.777344 60.3125 C 183.414063 60.3125 183.117188 60.398438 182.894531 60.570313 C 182.679688 60.738281 182.570313 60.953125 182.570313 61.222656 C 182.570313 61.488281 182.679688 61.703125 182.894531 61.871094 C 183.117188 62.042969 183.414063 62.132813 183.777344 62.132813 C 184.136719 62.132813 184.429688 62.042969 184.652344 61.871094 C 184.867188 61.703125 184.972656 61.488281 184.972656 61.222656 C 184.972656 60.953125 184.867188 60.738281 184.652344 60.570313 C 184.429688 60.398438 184.136719 60.3125 183.777344 60.3125 Z M 183.777344 62.734375 C 184.34375 62.734375 184.804688 62.589844 185.160156 62.304688 C 185.507813 62.023438 185.683594 61.664063 185.683594 61.222656 C 185.683594 60.773438 185.507813 60.410156 185.160156 60.128906 C 184.804688 59.84375 184.34375 59.699219 183.777344 59.699219 C 183.207031 59.699219 182.742188 59.84375 182.386719 60.128906 C 182.035156 60.410156 181.863281 60.773438 181.863281 61.222656 C 181.863281 61.664063 182.035156 62.023438 182.386719 62.304688 C 182.742188 62.589844 183.207031 62.734375 183.777344 62.734375 Z M 183.777344 63.011719 C 183.140625 63.011719 182.621094 62.851563 182.210938 62.523438 C 181.792969 62.1875 181.582031 61.753906 181.582031 61.222656 C 181.582031 60.683594 181.792969 60.25 182.210938 59.910156 C 182.617188 59.585938 183.140625 59.421875 183.777344 59.421875 C 184.410156 59.421875 184.929688 59.585938 185.335938 59.910156 C 185.753906 60.25 185.964844 60.683594 185.964844 61.222656 C 185.964844 61.753906 185.753906 62.1875 185.335938 62.523438 C 184.929688 62.851563 184.410156 63.011719 183.777344 63.011719 Z M 186.445313 63.40625 C 185.183594 63.597656 183.40625 63.695313 181.121094 63.695313 L 181.121094 63.554688 L 181.257813 63.53125 L 181.359375 64.152344 L 181.21875 64.175781 L 181.21875 64.035156 C 182.035156 64.035156 182.777344 64.019531 183.4375 63.988281 L 183.585938 63.984375 L 183.585938 66.984375 L 183.445313 66.984375 L 183.445313 66.84375 L 184.179688 66.84375 L 184.179688 66.984375 L 184.042969 66.984375 L 184.042969 63.953125 L 184.171875 63.945313 C 184.949219 63.898438 185.710938 63.808594 186.464844 63.675781 L 186.488281 63.816406 L 186.347656 63.832031 L 186.285156 63.285156 L 186.425781 63.269531 Z M 186.546875 63.105469 L 186.640625 63.929688 L 186.511719 63.953125 C 185.75 64.089844 184.976563 64.179688 184.191406 64.226563 L 184.179688 64.085938 L 184.320313 64.085938 L 184.320313 67.125 L 183.304688 67.125 L 183.304688 64.128906 L 183.445313 64.128906 L 183.453125 64.269531 C 182.785156 64.300781 182.039063 64.316406 181.21875 64.316406 L 181.101563 64.316406 L 180.957031 63.414063 L 181.121094 63.414063 C 183.390625 63.414063 185.152344 63.320313 186.402344 63.128906 Z M 187.148438 59.191406 L 187.148438 67.246094 L 187.007813 67.246094 L 187.007813 67.105469 L 187.746094 67.105469 L 187.746094 67.246094 L 187.605469 67.246094 L 187.605469 59.191406 L 187.746094 59.191406 L 187.746094 59.332031 L 187.007813 59.332031 L 187.007813 59.191406 Z M 186.867188 59.050781 L 187.886719 59.050781 L 187.886719 67.382813 L 186.867188 67.382813 Z M 187.746094 59.191406 L 187.746094 67.246094 L 187.007813 67.246094 L 187.007813 59.191406 Z M 186.488281 63.816406 C 185.726563 63.949219 184.945313 64.039063 184.179688 64.085938 L 184.179688 66.984375 L 183.445313 66.984375 L 183.445313 64.128906 C 182.644531 64.164063 181.882813 64.175781 181.21875 64.175781 L 181.121094 63.554688 C 182.621094 63.554688 184.65625 63.539063 186.425781 63.269531 Z M 183.777344 62.871094 C 182.574219 62.871094 181.722656 62.199219 181.722656 61.222656 C 181.722656 60.234375 182.574219 59.5625 183.777344 59.5625 C 184.972656 59.5625 185.824219 60.234375 185.824219 61.222656 C 185.824219 62.199219 184.972656 62.871094 183.777344 62.871094 Z M 183.777344 60.171875 C 182.988281 60.171875 182.429688 60.59375 182.429688 61.222656 C 182.429688 61.851563 182.988281 62.273438 183.777344 62.273438 C 184.558594 62.273438 185.113281 61.851563 185.113281 61.222656 C 185.113281 60.59375 184.558594 60.171875 183.777344 60.171875 Z M 183.777344 60.171875 "
     id="path49" />
  <path
     fill-rule="nonzero"
     fill="rgb(0%, 0%, 0%)"
     fill-opacity="1"
     d="M 190.136719 60.019531 L 190.136719 60.621094 L 189.996094 60.621094 L 189.996094 60.480469 L 193.101563 60.480469 L 193.089844 60.628906 C 193.050781 61.1875 192.960938 61.667969 192.824219 62.074219 L 192.792969 62.164063 L 189.59375 62.375 L 189.585938 62.234375 L 189.722656 62.207031 L 189.847656 62.855469 L 189.710938 62.882813 L 189.695313 62.742188 L 192.6875 62.460938 L 192.585938 62.679688 C 192.054688 63.835938 191.066406 64.765625 189.617188 65.46875 L 189.558594 65.339844 L 189.675781 65.261719 L 190.070313 65.847656 L 189.953125 65.925781 L 189.890625 65.800781 C 192.320313 64.597656 193.539063 62.671875 193.539063 60.019531 L 193.679688 60.019531 L 193.679688 60.160156 L 189.996094 60.160156 L 189.996094 60.019531 Z M 189.859375 59.878906 L 193.816406 59.878906 L 193.816406 60.019531 C 193.816406 62.789063 192.550781 64.796875 190.015625 66.050781 L 189.90625 66.105469 L 189.351563 65.285156 L 189.496094 65.214844 C 190.882813 64.542969 191.828125 63.660156 192.328125 62.5625 L 192.457031 62.621094 L 192.46875 62.761719 L 189.597656 63.035156 L 189.417969 62.105469 L 192.679688 61.890625 L 192.691406 62.027344 L 192.558594 61.984375 C 192.6875 61.601563 192.773438 61.144531 192.8125 60.609375 L 192.949219 60.621094 L 192.949219 60.761719 L 189.859375 60.761719 Z M 195.40625 59.183594 L 195.40625 67.234375 L 195.265625 67.234375 L 195.265625 67.09375 L 196.003906 67.09375 L 196.003906 67.234375 L 195.863281 67.234375 L 195.863281 59.183594 L 196.003906 59.183594 L 196.003906 59.324219 L 195.265625 59.324219 L 195.265625 59.183594 Z M 195.125 59.042969 L 196.144531 59.042969 L 196.144531 67.375 L 195.125 67.375 Z M 196.003906 59.183594 L 196.003906 67.234375 L 195.265625 67.234375 L 195.265625 59.183594 Z M 193.679688 60.019531 C 193.679688 62.351563 192.84375 64.496094 189.953125 65.925781 L 189.558594 65.339844 C 191.039063 64.625 191.964844 63.699219 192.457031 62.621094 L 189.710938 62.882813 L 189.585938 62.234375 L 192.691406 62.027344 C 192.84375 61.582031 192.914063 61.113281 192.949219 60.621094 L 189.996094 60.621094 L 189.996094 60.019531 Z M 193.679688 60.019531 "
     id="path51" />
  <path
     fill-rule="nonzero"
     fill="rgb(0%, 0%, 0%)"
     fill-opacity="1"
     d="M 200.378906 59.652344 L 200.378906 60.242188 L 200.238281 60.242188 L 200.238281 60.101563 L 203.191406 60.101563 L 203.179688 60.253906 C 203.152344 60.585938 203.082031 60.890625 202.972656 61.171875 L 202.941406 61.257813 L 199.839844 61.398438 L 199.835938 61.257813 L 199.972656 61.230469 L 200.097656 61.828125 L 199.960938 61.859375 L 199.949219 61.71875 L 202.820313 61.5 L 202.664063 61.738281 C 202.152344 62.515625 201.238281 63.101563 199.929688 63.5 L 199.890625 63.367188 L 200.015625 63.304688 L 200.292969 63.890625 L 200.167969 63.949219 L 200.125 63.816406 C 202.488281 63.097656 203.671875 61.707031 203.671875 59.652344 L 203.8125 59.652344 L 203.8125 59.789063 L 200.238281 59.789063 L 200.238281 59.652344 Z M 200.097656 59.511719 L 203.953125 59.511719 L 203.953125 59.652344 C 203.953125 61.847656 202.703125 63.324219 200.207031 64.085938 L 200.09375 64.121094 L 199.691406 63.28125 L 199.847656 63.234375 C 201.09375 62.855469 201.953125 62.304688 202.429688 61.585938 L 202.546875 61.660156 L 202.554688 61.800781 L 199.847656 62.007813 L 199.664063 61.125 L 202.835938 60.984375 L 202.84375 61.121094 L 202.710938 61.070313 C 202.8125 60.816406 202.875 60.535156 202.898438 60.230469 L 203.039063 60.242188 L 203.039063 60.382813 L 200.097656 60.382813 Z M 201.820313 64.707031 L 205.710938 64.707031 L 205.710938 66.675781 L 201.679688 66.675781 L 201.679688 64.707031 Z M 201.820313 64.988281 L 201.820313 64.847656 L 201.960938 64.847656 L 201.960938 66.535156 L 201.820313 66.535156 L 201.820313 66.394531 L 205.570313 66.394531 L 205.570313 66.535156 L 205.429688 66.535156 L 205.429688 64.847656 L 205.570313 64.847656 L 205.570313 64.988281 Z M 201.09375 66.988281 L 206.296875 66.988281 L 206.296875 67.128906 L 206.15625 67.128906 L 206.15625 64.265625 L 206.296875 64.265625 L 206.296875 64.40625 L 201.09375 64.40625 L 201.09375 64.265625 L 201.230469 64.265625 L 201.230469 67.128906 L 201.09375 67.128906 Z M 200.953125 67.269531 L 200.953125 64.125 L 206.4375 64.125 L 206.4375 67.269531 Z M 205.691406 59.191406 L 205.691406 61.453125 L 203.792969 61.453125 L 203.792969 61.3125 L 203.933594 61.3125 L 203.933594 61.921875 L 203.792969 61.921875 L 203.792969 61.78125 L 205.691406 61.78125 L 205.691406 63.832031 L 205.554688 63.832031 L 205.554688 63.691406 L 206.296875 63.691406 L 206.296875 63.832031 L 206.15625 63.832031 L 206.15625 59.191406 L 206.296875 59.191406 L 206.296875 59.332031 L 205.554688 59.332031 L 205.554688 59.191406 Z M 205.414063 59.050781 L 206.4375 59.050781 L 206.4375 63.972656 L 205.414063 63.972656 L 205.414063 61.921875 L 205.554688 61.921875 L 205.554688 62.0625 L 203.652344 62.0625 L 203.652344 61.171875 L 205.554688 61.171875 L 205.554688 61.3125 L 205.414063 61.3125 Z M 206.296875 59.191406 L 206.296875 63.832031 L 205.554688 63.832031 L 205.554688 61.921875 L 203.792969 61.921875 L 203.792969 61.3125 L 205.554688 61.3125 L 205.554688 59.191406 Z M 201.09375 64.265625 L 206.296875 64.265625 L 206.296875 67.128906 L 201.09375 67.128906 Z M 201.820313 66.535156 L 205.570313 66.535156 L 205.570313 64.847656 L 201.820313 64.847656 Z M 203.8125 59.652344 C 203.8125 61.695313 202.671875 63.1875 200.167969 63.949219 L 199.890625 63.367188 C 201.191406 62.972656 202.0625 62.398438 202.546875 61.660156 L 199.960938 61.859375 L 199.835938 61.257813 L 202.84375 61.121094 C 202.949219 60.84375 203.011719 60.558594 203.039063 60.242188 L 200.238281 60.242188 L 200.238281 59.652344 Z M 203.8125 59.652344 "
     id="path53" />
  <path
     fill-rule="nonzero"
     fill="rgb(0%, 0%, 0%)"
     fill-opacity="1"
     d="M 210.550781 60.40625 L 212.695313 60.40625 L 212.695313 63.328125 L 210.414063 63.328125 L 210.414063 60.40625 Z M 210.550781 60.6875 L 210.550781 60.546875 L 210.691406 60.546875 L 210.691406 63.1875 L 210.550781 63.1875 L 210.550781 63.046875 L 212.554688 63.046875 L 212.554688 63.1875 L 212.414063 63.1875 L 212.414063 60.546875 L 212.554688 60.546875 L 212.554688 60.6875 Z M 211.785156 65.628906 L 211.785156 63.640625 L 214.519531 63.640625 L 214.519531 63.78125 L 214.378906 63.78125 L 214.378906 63.1875 L 214.519531 63.1875 L 214.519531 63.328125 L 213.148438 63.328125 L 213.148438 60.40625 L 214.539063 60.40625 L 214.539063 60.546875 L 214.398438 60.546875 L 214.398438 59.957031 L 214.539063 59.957031 L 214.539063 60.097656 L 208.570313 60.097656 L 208.570313 59.957031 L 208.710938 59.957031 L 208.710938 60.546875 L 208.570313 60.546875 L 208.570313 60.40625 L 209.957031 60.40625 L 209.957031 63.328125 L 208.585938 63.328125 L 208.585938 63.1875 L 208.726563 63.1875 L 208.726563 63.78125 L 208.585938 63.78125 L 208.585938 63.640625 L 211.320313 63.640625 L 211.320313 65.769531 L 207.921875 65.769531 L 207.921875 65.628906 L 208.0625 65.628906 L 208.0625 66.230469 L 207.921875 66.230469 L 207.921875 66.089844 L 215.21875 66.089844 L 215.21875 66.230469 L 215.078125 66.230469 L 215.078125 65.628906 L 215.21875 65.628906 L 215.21875 65.769531 L 211.785156 65.769531 Z M 212.066406 65.628906 L 211.925781 65.628906 L 211.925781 65.488281 L 215.359375 65.488281 L 215.359375 66.371094 L 207.78125 66.371094 L 207.78125 65.488281 L 211.179688 65.488281 L 211.179688 65.628906 L 211.039063 65.628906 L 211.039063 63.78125 L 211.179688 63.78125 L 211.179688 63.917969 L 208.445313 63.917969 L 208.445313 63.046875 L 209.816406 63.046875 L 209.816406 63.1875 L 209.675781 63.1875 L 209.675781 60.546875 L 209.816406 60.546875 L 209.816406 60.6875 L 208.429688 60.6875 L 208.429688 59.816406 L 214.679688 59.816406 L 214.679688 60.6875 L 213.289063 60.6875 L 213.289063 60.546875 L 213.429688 60.546875 L 213.429688 63.1875 L 213.289063 63.1875 L 213.289063 63.046875 L 214.660156 63.046875 L 214.660156 63.917969 L 211.925781 63.917969 L 211.925781 63.78125 L 212.066406 63.78125 Z M 215.21875 65.628906 L 215.21875 66.230469 L 207.921875 66.230469 L 207.921875 65.628906 L 211.179688 65.628906 L 211.179688 63.78125 L 208.585938 63.78125 L 208.585938 63.1875 L 209.816406 63.1875 L 209.816406 60.546875 L 208.570313 60.546875 L 208.570313 59.957031 L 214.539063 59.957031 L 214.539063 60.546875 L 213.289063 60.546875 L 213.289063 63.1875 L 214.519531 63.1875 L 214.519531 63.78125 L 211.925781 63.78125 L 211.925781 65.628906 Z M 210.550781 63.1875 L 212.554688 63.1875 L 212.554688 60.546875 L 210.550781 60.546875 Z M 210.550781 63.1875 "
     id="path55" />
  <path
     fill-rule="nonzero"
     fill="rgb(0%, 0%, 0%)"
     fill-opacity="1"
     d="M 222.070313 64.878906 L 222.8125 64.878906 L 222.8125 65.019531 L 222.671875 65.019531 L 222.671875 59.191406 L 222.8125 59.191406 L 222.8125 59.332031 L 222.070313 59.332031 L 222.070313 59.191406 L 222.207031 59.191406 L 222.207031 61.082031 L 219.796875 61.082031 L 219.796875 60.941406 L 219.9375 60.941406 L 219.9375 61.542969 L 219.796875 61.542969 L 219.796875 61.40625 L 222.207031 61.40625 L 222.207031 65.019531 L 222.070313 65.019531 Z M 221.929688 65.160156 L 221.929688 61.542969 L 222.070313 61.542969 L 222.070313 61.683594 L 219.65625 61.683594 L 219.65625 60.804688 L 222.070313 60.804688 L 222.070313 60.941406 L 221.929688 60.941406 L 221.929688 59.050781 L 222.953125 59.050781 L 222.953125 65.160156 Z M 220.859375 62.894531 C 219.855469 63.101563 218.699219 63.210938 217.382813 63.21875 L 217.242188 63.21875 L 217.242188 59.792969 L 217.382813 59.792969 L 217.382813 59.933594 L 216.648438 59.933594 L 216.648438 59.792969 L 216.789063 59.792969 L 216.789063 63.699219 L 216.648438 63.699219 L 216.648438 63.558594 L 217.257813 63.558594 C 218.625 63.558594 219.839844 63.453125 220.902344 63.246094 L 220.929688 63.382813 L 220.789063 63.40625 L 220.691406 62.777344 L 220.828125 62.757813 Z M 220.945313 62.589844 L 221.089844 63.496094 L 220.957031 63.523438 C 219.875 63.734375 218.644531 63.839844 217.257813 63.839844 L 216.507813 63.839844 L 216.507813 59.652344 L 217.523438 59.652344 L 217.523438 63.078125 L 217.382813 63.078125 L 217.382813 62.9375 C 218.679688 62.929688 219.816406 62.824219 220.800781 62.617188 Z M 218.25 66.453125 L 218.25 64.535156 L 218.386719 64.535156 L 218.386719 64.671875 L 217.652344 64.671875 L 217.652344 64.535156 L 217.792969 64.535156 L 217.792969 67.054688 L 217.652344 67.054688 L 217.652344 66.914063 L 223.019531 66.914063 L 223.019531 67.054688 L 222.878906 67.054688 L 222.878906 66.453125 L 223.019531 66.453125 L 223.019531 66.59375 L 218.25 66.59375 Z M 218.527344 66.453125 L 218.386719 66.453125 L 218.386719 66.3125 L 223.160156 66.3125 L 223.160156 67.195313 L 217.511719 67.195313 L 217.511719 64.394531 L 218.527344 64.394531 Z M 223.019531 66.453125 L 223.019531 67.054688 L 217.652344 67.054688 L 217.652344 64.535156 L 218.386719 64.535156 L 218.386719 66.453125 Z M 220.929688 63.382813 C 219.691406 63.628906 218.59375 63.699219 217.257813 63.699219 L 216.648438 63.699219 L 216.648438 59.792969 L 217.382813 59.792969 L 217.382813 63.078125 C 218.628906 63.070313 219.664063 63 220.828125 62.757813 Z M 222.070313 61.542969 L 219.796875 61.542969 L 219.796875 60.941406 L 222.070313 60.941406 L 222.070313 59.191406 L 222.8125 59.191406 L 222.8125 65.019531 L 222.070313 65.019531 Z M 222.070313 61.542969 "
     id="path57" />
  <path
     fill-rule="nonzero"
     fill="rgb(0%, 0%, 0%)"
     fill-opacity="1"
     d="M 230.902344 63.667969 L 225.976563 63.667969 L 225.976563 62.113281 L 230.640625 62.113281 L 230.640625 62.253906 L 230.5 62.253906 L 230.5 61.671875 L 230.640625 61.671875 L 230.640625 61.808594 L 225.976563 61.808594 L 225.976563 60.335938 L 230.820313 60.335938 L 230.820313 60.476563 L 230.679688 60.476563 L 230.679688 59.882813 L 230.820313 59.882813 L 230.820313 60.023438 L 225.371094 60.023438 L 225.371094 59.882813 L 225.511719 59.882813 L 225.511719 64.121094 L 225.371094 64.121094 L 225.371094 63.980469 L 230.902344 63.980469 L 230.902344 64.121094 L 230.761719 64.121094 L 230.761719 63.527344 L 230.902344 63.527344 Z M 231.039063 63.386719 L 231.039063 64.261719 L 225.230469 64.261719 L 225.230469 59.742188 L 230.960938 59.742188 L 230.960938 60.617188 L 226.117188 60.617188 L 226.117188 60.476563 L 226.257813 60.476563 L 226.257813 61.671875 L 226.117188 61.671875 L 226.117188 61.53125 L 230.78125 61.53125 L 230.78125 62.394531 L 226.117188 62.394531 L 226.117188 62.253906 L 226.257813 62.253906 L 226.257813 63.527344 L 226.117188 63.527344 L 226.117188 63.386719 Z M 224.570313 65.59375 L 224.570313 66.195313 L 224.429688 66.195313 L 224.429688 66.054688 L 231.734375 66.054688 L 231.734375 66.195313 L 231.59375 66.195313 L 231.59375 65.59375 L 231.734375 65.59375 L 231.734375 65.734375 L 224.429688 65.734375 L 224.429688 65.59375 Z M 224.289063 65.453125 L 231.875 65.453125 L 231.875 66.335938 L 224.289063 66.335938 Z M 231.734375 65.59375 L 231.734375 66.195313 L 224.429688 66.195313 L 224.429688 65.59375 Z M 230.902344 64.121094 L 225.371094 64.121094 L 225.371094 59.882813 L 230.820313 59.882813 L 230.820313 60.476563 L 226.117188 60.476563 L 226.117188 61.671875 L 230.640625 61.671875 L 230.640625 62.253906 L 226.117188 62.253906 L 226.117188 63.527344 L 230.902344 63.527344 Z M 230.902344 64.121094 "
     id="path59" />
  <path
     fill-rule="nonzero"
     fill="rgb(0%, 0%, 0%)"
     fill-opacity="1"
     d="M 195.691406 78.273438 L 196.074219 78.09375 L 196.121094 78.1875 L 196.03125 78.242188 C 195.445313 77.289063 195.152344 76.191406 195.152344 74.949219 C 195.152344 73.714844 195.445313 72.617188 196.03125 71.65625 L 196.121094 71.710938 L 196.074219 71.808594 L 195.691406 71.632813 L 195.734375 71.535156 L 195.824219 71.589844 C 195.175781 72.644531 194.851563 73.761719 194.851563 74.949219 C 194.851563 76.132813 195.175781 77.253906 195.824219 78.3125 L 195.734375 78.367188 Z M 195.78125 78.464844 L 195.695313 78.503906 L 195.644531 78.425781 C 194.976563 77.332031 194.640625 76.171875 194.640625 74.949219 C 194.640625 73.722656 194.976563 72.566406 195.644531 71.480469 L 195.695313 71.402344 L 196.269531 71.664063 L 196.210938 71.765625 C 195.644531 72.691406 195.363281 73.753906 195.363281 74.949219 C 195.363281 76.152344 195.644531 77.210938 196.207031 78.132813 L 196.269531 78.230469 Z M 195.734375 78.367188 C 195.117188 77.359375 194.746094 76.277344 194.746094 74.949219 C 194.746094 73.628906 195.117188 72.539063 195.734375 71.535156 L 196.121094 71.710938 C 195.535156 72.675781 195.257813 73.804688 195.257813 74.949219 C 195.257813 76.09375 195.535156 77.230469 196.121094 78.1875 Z M 195.734375 78.367188 "
     id="path61" />
  <path
     fill-rule="nonzero"
     fill="rgb(0%, 0%, 0%)"
     fill-opacity="1"
     d="M 198.402344 72.191406 C 198.726563 72.191406 198.996094 72.289063 199.207031 72.488281 C 199.421875 72.6875 199.53125 72.945313 199.53125 73.253906 C 199.53125 73.5625 199.421875 73.816406 199.207031 74.019531 C 198.992188 74.21875 198.726563 74.320313 198.402344 74.320313 C 198.082031 74.320313 197.8125 74.21875 197.601563 74.019531 C 197.386719 73.816406 197.28125 73.5625 197.28125 73.253906 C 197.28125 72.945313 197.386719 72.6875 197.601563 72.488281 C 197.8125 72.289063 198.078125 72.191406 198.402344 72.191406 Z M 198.402344 72.402344 C 198.136719 72.402344 197.917969 72.480469 197.746094 72.640625 C 197.574219 72.800781 197.488281 73.003906 197.488281 73.253906 C 197.488281 73.5 197.574219 73.707031 197.746094 73.867188 C 197.917969 74.027344 198.136719 74.109375 198.402344 74.109375 C 198.671875 74.109375 198.890625 74.027344 199.0625 73.867188 C 199.234375 73.707031 199.320313 73.5 199.320313 73.253906 C 199.320313 73.003906 199.234375 72.800781 199.0625 72.640625 C 198.890625 72.480469 198.671875 72.402344 198.402344 72.402344 Z M 201.28125 72.796875 L 201.28125 73.800781 L 199.742188 73.800781 L 199.78125 73.667969 C 199.824219 73.527344 199.84375 73.390625 199.84375 73.253906 C 199.84375 73.105469 199.820313 72.964844 199.777344 72.828125 L 199.730469 72.691406 L 201.28125 72.691406 Z M 201.070313 72.796875 L 201.175781 72.796875 L 201.175781 72.898438 L 199.875 72.898438 L 199.875 72.796875 L 199.976563 72.761719 C 200.027344 72.921875 200.054688 73.085938 200.054688 73.253906 C 200.054688 73.410156 200.03125 73.566406 199.984375 73.726563 L 199.882813 73.695313 L 199.882813 73.59375 L 201.175781 73.59375 L 201.175781 73.695313 L 201.070313 73.695313 Z M 201.28125 74.148438 L 201.28125 74.941406 L 201.175781 74.941406 L 201.175781 74.835938 L 201.734375 74.835938 L 201.734375 74.941406 L 201.628906 74.941406 L 201.628906 71.507813 L 201.734375 71.507813 L 201.734375 71.613281 L 201.175781 71.613281 L 201.175781 71.507813 L 201.28125 71.507813 L 201.28125 72.449219 L 199.570313 72.449219 L 199.539063 72.414063 C 199.265625 72.097656 198.882813 71.9375 198.402344 71.9375 C 197.980469 71.9375 197.636719 72.0625 197.367188 72.308594 C 197.097656 72.554688 196.964844 72.867188 196.964844 73.253906 C 196.964844 73.636719 197.097656 73.953125 197.367188 74.203125 C 197.636719 74.449219 197.984375 74.574219 198.402344 74.574219 C 198.890625 74.574219 199.277344 74.410156 199.558594 74.078125 L 199.589844 74.042969 L 201.28125 74.042969 Z M 201.070313 74.148438 L 201.175781 74.148438 L 201.175781 74.253906 L 199.640625 74.253906 L 199.640625 74.148438 L 199.71875 74.214844 C 199.394531 74.59375 198.957031 74.785156 198.402344 74.785156 C 197.929688 74.785156 197.535156 74.640625 197.226563 74.355469 C 196.910156 74.066406 196.753906 73.699219 196.753906 73.253906 C 196.753906 72.804688 196.910156 72.441406 197.226563 72.152344 C 197.535156 71.867188 197.929688 71.726563 198.402344 71.726563 C 198.949219 71.726563 199.378906 71.910156 199.699219 72.273438 L 199.621094 72.34375 L 199.621094 72.238281 L 201.175781 72.238281 L 201.175781 72.34375 L 201.070313 72.34375 L 201.070313 71.402344 L 201.839844 71.402344 L 201.839844 75.046875 L 201.070313 75.046875 Z M 201.074219 75.242188 L 200.535156 75.242188 L 200.535156 75.136719 L 200.640625 75.136719 L 200.640625 75.535156 C 200.640625 76.179688 200.339844 76.695313 199.738281 77.078125 L 199.683594 77.113281 L 199.628906 77.078125 C 199.03125 76.730469 198.734375 76.21875 198.734375 75.535156 L 198.734375 75.136719 L 198.839844 75.136719 L 198.839844 75.242188 L 198.308594 75.242188 L 198.308594 75.136719 L 198.414063 75.136719 L 198.414063 75.535156 C 198.414063 75.863281 198.296875 76.179688 198.070313 76.480469 C 197.832031 76.789063 197.519531 77.015625 197.132813 77.160156 L 197.09375 77.0625 L 197.183594 77.003906 L 197.457031 77.414063 L 197.371094 77.472656 L 197.332031 77.375 C 197.863281 77.167969 198.242188 76.808594 198.464844 76.308594 L 198.574219 76.070313 L 198.660156 76.3125 C 198.859375 76.855469 199.214844 77.226563 199.726563 77.421875 L 199.6875 77.519531 L 199.644531 77.425781 C 200.136719 77.214844 200.488281 76.839844 200.699219 76.292969 L 200.796875 76.039063 L 200.894531 76.289063 C 201.09375 76.796875 201.480469 77.160156 202.054688 77.375 L 202.015625 77.472656 L 201.929688 77.414063 L 202.207031 77.003906 L 202.292969 77.0625 L 202.257813 77.164063 C 201.859375 77.027344 201.542969 76.808594 201.308594 76.503906 C 201.082031 76.207031 200.96875 75.882813 200.96875 75.535156 L 200.96875 75.136719 L 201.074219 75.136719 Z M 201.179688 75.03125 L 201.179688 75.535156 C 201.179688 75.835938 201.277344 76.117188 201.476563 76.375 C 201.683594 76.644531 201.96875 76.84375 202.324219 76.964844 L 202.457031 77.007813 L 202.058594 77.601563 L 201.980469 77.570313 C 201.347656 77.332031 200.921875 76.933594 200.699219 76.367188 L 200.796875 76.328125 L 200.894531 76.367188 C 200.664063 76.96875 200.277344 77.386719 199.726563 77.617188 L 199.6875 77.632813 L 199.648438 77.617188 C 199.078125 77.398438 198.683594 76.988281 198.464844 76.386719 L 198.5625 76.347656 L 198.660156 76.390625 C 198.410156 76.949219 197.996094 77.339844 197.410156 77.570313 L 197.332031 77.601563 L 196.933594 77.011719 L 197.058594 76.964844 C 197.410156 76.835938 197.691406 76.628906 197.902344 76.351563 C 198.101563 76.089844 198.203125 75.816406 198.203125 75.535156 L 198.203125 75.03125 L 198.945313 75.03125 L 198.945313 75.535156 C 198.945313 76.136719 199.207031 76.589844 199.734375 76.898438 L 199.679688 76.988281 L 199.625 76.898438 C 200.160156 76.558594 200.429688 76.105469 200.429688 75.535156 L 200.429688 75.03125 Z M 201.074219 75.535156 C 201.074219 76.167969 201.519531 76.800781 202.292969 77.0625 L 202.015625 77.472656 C 201.429688 77.25 201 76.839844 200.796875 76.328125 C 200.609375 76.820313 200.246094 77.285156 199.6875 77.519531 C 199.109375 77.296875 198.746094 76.847656 198.5625 76.347656 C 198.347656 76.835938 197.9375 77.25 197.371094 77.472656 L 197.09375 77.0625 C 197.855469 76.78125 198.308594 76.128906 198.308594 75.535156 L 198.308594 75.136719 L 198.839844 75.136719 L 198.839844 75.535156 C 198.839844 76.082031 199.113281 76.660156 199.679688 76.988281 C 200.253906 76.625 200.535156 76.011719 200.535156 75.535156 L 200.535156 75.136719 L 201.074219 75.136719 Z M 199.640625 74.148438 C 199.355469 74.476563 198.917969 74.679688 198.402344 74.679688 C 197.511719 74.679688 196.859375 74.085938 196.859375 73.253906 C 196.859375 72.417969 197.511719 71.832031 198.402344 71.832031 C 198.914063 71.832031 199.34375 72.027344 199.621094 72.34375 L 201.175781 72.34375 L 201.175781 71.507813 L 201.734375 71.507813 L 201.734375 74.941406 L 201.175781 74.941406 L 201.175781 74.148438 Z M 199.875 72.796875 C 199.921875 72.9375 199.949219 73.089844 199.949219 73.253906 C 199.949219 73.414063 199.921875 73.5625 199.882813 73.695313 L 201.175781 73.695313 L 201.175781 72.796875 Z M 198.402344 72.296875 C 197.816406 72.296875 197.386719 72.695313 197.386719 73.253906 C 197.386719 73.8125 197.816406 74.214844 198.402344 74.214844 C 198.992188 74.214844 199.425781 73.8125 199.425781 73.253906 C 199.425781 72.695313 198.992188 72.296875 198.402344 72.296875 Z M 198.402344 72.296875 "
     id="path63" />
  <path
     fill-rule="nonzero"
     fill="rgb(0%, 0%, 0%)"
     fill-opacity="1"
     d="M 205.777344 73.179688 L 205.777344 73.625 L 205.671875 73.625 L 205.671875 73.519531 L 207.472656 73.519531 L 207.472656 75.910156 L 207.367188 75.910156 L 207.367188 75.808594 L 207.925781 75.808594 L 207.925781 75.910156 L 207.820313 75.910156 L 207.820313 71.507813 L 207.925781 71.507813 L 207.925781 71.613281 L 207.367188 71.613281 L 207.367188 71.507813 L 207.472656 71.507813 L 207.472656 73.285156 L 205.671875 73.285156 L 205.671875 73.179688 Z M 205.566406 73.074219 L 207.367188 73.074219 L 207.367188 73.179688 L 207.261719 73.179688 L 207.261719 71.402344 L 208.03125 71.402344 L 208.03125 76.015625 L 207.261719 76.015625 L 207.261719 73.625 L 207.367188 73.625 L 207.367188 73.726563 L 205.566406 73.726563 Z M 206.417969 74.480469 C 205.738281 74.613281 204.882813 74.675781 203.847656 74.675781 L 203.742188 74.675781 L 203.742188 72.347656 L 206.0625 72.347656 L 206.0625 72.453125 L 205.957031 72.453125 L 205.957031 72 L 206.0625 72 L 206.0625 72.105469 L 203.296875 72.105469 L 203.296875 72 L 203.402344 72 L 203.402344 75.023438 L 203.296875 75.023438 L 203.296875 74.917969 L 203.753906 74.917969 C 204.828125 74.917969 205.722656 74.855469 206.441406 74.722656 L 206.460938 74.828125 L 206.355469 74.84375 L 206.292969 74.390625 L 206.398438 74.378906 Z M 206.488281 74.253906 L 206.578125 74.914063 L 206.476563 74.929688 C 205.746094 75.0625 204.839844 75.128906 203.753906 75.128906 L 203.191406 75.128906 L 203.191406 71.894531 L 206.167969 71.894531 L 206.167969 72.558594 L 203.847656 72.558594 L 203.847656 72.453125 L 203.953125 72.453125 L 203.953125 74.574219 L 203.847656 74.574219 L 203.847656 74.46875 C 204.867188 74.46875 205.710938 74.402344 206.378906 74.273438 Z M 204.503906 76.996094 L 204.503906 75.589844 L 204.609375 75.589844 L 204.609375 75.695313 L 204.054688 75.695313 L 204.054688 75.589844 L 204.160156 75.589844 L 204.160156 77.445313 L 204.054688 77.445313 L 204.054688 77.339844 L 208.082031 77.339844 L 208.082031 77.445313 L 207.976563 77.445313 L 207.976563 76.996094 L 208.082031 76.996094 L 208.082031 77.101563 L 204.503906 77.101563 Z M 204.714844 76.996094 L 204.609375 76.996094 L 204.609375 76.890625 L 208.1875 76.890625 L 208.1875 77.550781 L 203.949219 77.550781 L 203.949219 75.484375 L 204.714844 75.484375 Z M 208.082031 76.996094 L 208.082031 77.445313 L 204.054688 77.445313 L 204.054688 75.589844 L 204.609375 75.589844 L 204.609375 76.996094 Z M 206.460938 74.828125 C 205.597656 74.984375 204.882813 75.023438 203.753906 75.023438 L 203.296875 75.023438 L 203.296875 72 L 206.0625 72 L 206.0625 72.453125 L 203.847656 72.453125 L 203.847656 74.574219 C 204.90625 74.574219 205.597656 74.53125 206.398438 74.378906 Z M 207.367188 73.179688 L 207.367188 71.507813 L 207.925781 71.507813 L 207.925781 75.910156 L 207.367188 75.910156 L 207.367188 73.625 L 205.671875 73.625 L 205.671875 73.179688 Z M 207.367188 73.179688 "
     id="path65" />
  <path
     fill-rule="nonzero"
     fill="rgb(0%, 0%, 0%)"
     fill-opacity="1"
     d="M 215.070313 75.484375 L 215.628906 75.484375 L 215.628906 75.589844 L 215.523438 75.589844 L 215.523438 71.507813 L 215.628906 71.507813 L 215.628906 71.613281 L 215.070313 71.613281 L 215.070313 71.507813 L 215.175781 71.507813 L 215.175781 73.3125 L 213.769531 73.3125 L 213.769531 73.207031 L 213.875 73.207031 L 213.875 73.65625 L 213.769531 73.65625 L 213.769531 73.550781 L 215.175781 73.550781 L 215.175781 75.589844 L 215.070313 75.589844 Z M 214.964844 75.695313 L 214.964844 73.65625 L 215.070313 73.65625 L 215.070313 73.761719 L 213.664063 73.761719 L 213.664063 73.101563 L 215.070313 73.101563 L 215.070313 73.207031 L 214.964844 73.207031 L 214.964844 71.402344 L 215.734375 71.402344 L 215.734375 75.695313 Z M 211.148438 71.980469 L 211.148438 72.429688 L 211.042969 72.429688 L 211.042969 72.328125 L 213.273438 72.328125 L 213.261719 72.441406 C 213.148438 73.574219 212.324219 74.382813 210.785156 74.867188 L 210.753906 74.765625 L 210.847656 74.714844 L 211.089844 75.152344 L 210.996094 75.207031 L 210.964844 75.105469 C 212.75 74.527344 213.644531 73.484375 213.644531 71.980469 L 213.75 71.980469 L 213.75 72.085938 L 211.042969 72.085938 L 211.042969 71.980469 Z M 210.9375 71.875 L 213.855469 71.875 L 213.855469 71.980469 C 213.855469 73.585938 212.914063 74.695313 211.027344 75.304688 L 210.945313 75.332031 L 210.601563 74.707031 L 210.722656 74.667969 C 212.171875 74.210938 212.949219 73.460938 213.054688 72.421875 L 213.15625 72.429688 L 213.15625 72.535156 L 210.9375 72.535156 Z M 213.953125 75.167969 L 213.398438 75.167969 L 213.398438 75.0625 L 213.503906 75.0625 L 213.503906 75.339844 C 213.503906 75.796875 213.289063 76.203125 212.859375 76.554688 C 212.46875 76.875 211.980469 77.085938 211.398438 77.1875 L 211.378906 77.082031 L 211.472656 77.035156 L 211.695313 77.472656 L 211.601563 77.519531 L 211.582031 77.417969 C 212.574219 77.226563 213.242188 76.789063 213.582031 76.113281 L 213.675781 75.929688 L 213.769531 76.113281 C 214.113281 76.78125 214.773438 77.210938 215.75 77.402344 L 215.730469 77.507813 L 215.636719 77.460938 L 215.859375 77.027344 L 215.953125 77.078125 L 215.933594 77.179688 C 215.355469 77.070313 214.875 76.855469 214.484375 76.539063 C 214.058594 76.191406 213.847656 75.789063 213.847656 75.339844 L 213.847656 75.0625 L 213.953125 75.0625 Z M 214.058594 74.957031 L 214.058594 75.339844 C 214.058594 75.722656 214.246094 76.070313 214.621094 76.375 C 214.980469 76.671875 215.429688 76.871094 215.972656 76.972656 L 216.109375 77 L 215.785156 77.625 L 215.707031 77.609375 C 214.667969 77.40625 213.957031 76.9375 213.582031 76.210938 L 213.675781 76.160156 L 213.769531 76.207031 C 213.398438 76.945313 212.679688 77.417969 211.621094 77.625 L 211.542969 77.640625 L 211.222656 77.003906 L 211.363281 76.980469 C 211.90625 76.882813 212.363281 76.6875 212.726563 76.390625 C 213.105469 76.082031 213.292969 75.730469 213.292969 75.339844 L 213.292969 74.957031 Z M 213.953125 75.339844 C 213.953125 76.207031 214.886719 76.875 215.953125 77.078125 L 215.730469 77.507813 C 214.839844 77.332031 214.03125 76.855469 213.675781 76.160156 C 213.320313 76.867188 212.503906 77.347656 211.601563 77.519531 L 211.378906 77.082031 C 212.457031 76.894531 213.398438 76.222656 213.398438 75.339844 L 213.398438 75.0625 L 213.953125 75.0625 Z M 213.75 71.980469 C 213.75 73.535156 212.71875 74.644531 210.996094 75.207031 L 210.753906 74.765625 C 212.179688 74.316406 213.050781 73.496094 213.15625 72.429688 L 211.042969 72.429688 L 211.042969 71.980469 Z M 215.070313 73.65625 L 213.769531 73.65625 L 213.769531 73.207031 L 215.070313 73.207031 L 215.070313 71.507813 L 215.628906 71.507813 L 215.628906 75.589844 L 215.070313 75.589844 Z M 215.070313 73.65625 "
     id="path67" />
  <path
     fill-rule="nonzero"
     fill="rgb(0%, 0%, 0%)"
     fill-opacity="1"
     d="M 217.066406 78.3125 C 217.722656 77.257813 218.046875 76.136719 218.046875 74.949219 C 218.046875 73.757813 217.722656 72.640625 217.066406 71.59375 L 217.15625 71.535156 L 217.199219 71.632813 L 216.824219 71.804688 L 216.78125 71.710938 L 216.871094 71.65625 C 217.453125 72.628906 217.746094 73.726563 217.746094 74.949219 C 217.746094 76.179688 217.453125 77.277344 216.871094 78.242188 L 216.78125 78.1875 L 216.824219 78.09375 L 217.203125 78.273438 L 217.15625 78.367188 Z M 217.195313 78.503906 L 216.628906 78.230469 L 216.691406 78.132813 C 217.253906 77.199219 217.535156 76.140625 217.535156 74.949219 C 217.535156 73.765625 217.253906 72.703125 216.6875 71.765625 L 216.628906 71.664063 L 217.195313 71.402344 L 217.246094 71.480469 C 217.921875 72.5625 218.257813 73.71875 218.257813 74.949219 C 218.257813 76.179688 217.921875 77.335938 217.246094 78.425781 Z M 216.78125 78.1875 C 217.359375 77.230469 217.640625 76.09375 217.640625 74.949219 C 217.640625 73.804688 217.359375 72.675781 216.78125 71.710938 L 217.15625 71.535156 C 217.78125 72.539063 218.152344 73.628906 218.152344 74.949219 C 218.152344 76.277344 217.78125 77.359375 217.15625 78.367188 Z M 216.78125 78.1875 "
     id="path69" />
</svg>
